<?xml version="1.0" encoding="UTF-8" standalone="no"?>
<svg
   xmlns:dc="http://purl.org/dc/elements/1.1/"
   xmlns:cc="http://creativecommons.org/ns#"
   xmlns:rdf="http://www.w3.org/1999/02/22-rdf-syntax-ns#"
   xmlns:svg="http://www.w3.org/2000/svg"
   xmlns="http://www.w3.org/2000/svg"
   xml:space="preserve"
   style="enable-background:new 0 0 288.618 288.618;"
   viewBox="0 0 288.618 288.618"
   y="0px"
   x="0px"
   id="Capa_1"
   version="1.1"><metadata
   id="metadata43"><rdf:RDF><cc:Work
       rdf:about=""><dc:format>image/svg+xml</dc:format><dc:type
         rdf:resource="http://purl.org/dc/dcmitype/StillImage" /><dc:title></dc:title></cc:Work></rdf:RDF></metadata><defs
   id="defs41">
	
	















</defs>
<path
   style="fill:none;stroke:#000000;stroke-opacity:1;stroke-width:0.37795276;stroke-miterlimit:4;stroke-dasharray:none"
   d="m 287.985,215.049 -9.848,-24.938 c -1.365,-3.458 -4.706,-5.73 -8.424,-5.73 h -33.89 c 4.387,0 8.465,-2.258 10.794,-5.976 16.747,-26.736 16.747,-60.691 0,-87.428 C 244.288,87.258 240.21,85 235.822,85 H 224.475 V 53.66 h 5.851 c 3.616,0 6.548,-2.932 6.548,-6.548 V 39.94 c 0,-3.616 -2.932,-6.548 -6.548,-6.548 h -48.184 c -3.616,0 -6.548,2.932 -6.548,6.548 v 7.172 c 0,3.616 2.932,6.548 6.548,6.548 h 5.851 V 85.002 H 149.124 V 29.45 c 0,-5.003 -4.055,-9.058 -9.057,-9.058 H 9.057 C 4.055,20.392 0,24.447 0,29.45 v 13.875 c 0,5.002 4.055,9.057 9.057,9.057 h 10.101 v 132 H 9.057 C 4.055,184.382 0,188.437 0,193.439 v 24.938 c 0,5.003 4.055,9.058 9.057,9.058 h 19.682 v -0.001 c 0,-30.765 25.028,-55.793 55.793,-55.793 30.765,0 55.794,25.028 55.794,55.793 v 0.001 h 26.992 c 5.183,-17.839 21.663,-30.919 41.151,-30.919 19.488,0 35.969,13.08 41.152,30.919 h 29.939 c 2.999,0 5.803,-1.483 7.489,-3.963 1.687,-2.481 2.037,-5.634 0.936,-8.423 z M 116.777,136.744 c 0,4.705 -3.814,8.52 -8.52,8.52 H 57.782 c -4.705,0 -8.52,-3.814 -8.52,-8.52 V 94.139 c 0,-18.645 15.113,-33.758 33.757,-33.758 18.645,0 33.758,15.113 33.758,33.758 z"
   id="path2" /><path
   style="fill:none;stroke:#000000;stroke-opacity:1;stroke-width:0.37795276;stroke-miterlimit:4;stroke-dasharray:none"
   d="m 208.469,210.514 c -15.34,0 -27.877,11.971 -28.796,27.079 -5.911,0 -49.787,0 -55.624,0 0.833,-3.248 1.276,-6.653 1.276,-10.161 0,-22.529 -18.264,-40.793 -40.794,-40.793 -22.529,0 -40.793,18.264 -40.793,40.793 0,22.53 18.264,40.794 40.793,40.794 13.033,0 24.63,-6.119 32.098,-15.633 23.751,0 41.245,0 66.195,0 4.796,9.283 14.476,15.633 25.645,15.633 15.938,0 28.856,-12.919 28.856,-28.856 0,-15.937 -12.919,-28.856 -28.856,-28.856 z"
   id="path4" />















</svg>