  0
SECTION
  2
HEADER
  9
$ACADVER
  1
AC1018
  9
$ACADMAINTVER
 70
     0
  9
$DWGCODEPAGE
  3
ANSI_1252
  9
$LASTSAVEDBY
  1
julien
  9
$INSBASE
 10
0.0
 20
0.0
 30
0.0
  9
$EXTMIN
 10
14.94997590802735
 20
15.8273849783727
 30
0.0
  9
$EXTMAX
 10
57.71346803208986
 20
52.5481227383727
 30
0.0
  9
$LIMMIN
 10
0.0
 20
0.0
  9
$LIMMAX
 10
12.0
 20
9.0
  9
$ORTHOMODE
 70
     0
  9
$REGENMODE
 70
     1
  9
$FILLMODE
 70
     1
  9
$QTEXTMODE
 70
     0
  9
$MIRRTEXT
 70
     1
  9
$LTSCALE
 40
1.0
  9
$ATTMODE
 70
     1
  9
$TEXTSIZE
 40
2.5
  9
$TRACEWID
 40
0.05
  9
$TEXTSTYLE
  7
STANDARD
  9
$CLAYER
  8
0
  9
$CELTYPE
  6
ByBlock
  9
$CECOLOR
 62
   256
  9
$CELTSCALE
 40
1.0
  9
$DISPSILH
 70
     0
  9
$DIMSCALE
 40
1.0
  9
$DIMASZ
 40
0.18
  9
$DIMEXO
 40
0.0625
  9
$DIMDLI
 40
0.38
  9
$DIMRND
 40
0.0
  9
$DIMDLE
 40
0.0
  9
$DIMEXE
 40
0.18
  9
$DIMTP
 40
0.0
  9
$DIMTM
 40
0.0
  9
$DIMTXT
 40
0.18
  9
$DIMCEN
 40
0.09
  9
$DIMTSZ
 40
0.0
  9
$DIMTOL
 70
     0
  9
$DIMLIM
 70
     0
  9
$DIMTIH
 70
     1
  9
$DIMTOH
 70
     1
  9
$DIMSE1
 70
     0
  9
$DIMSE2
 70
     0
  9
$DIMTAD
 70
     0
  9
$DIMZIN
 70
     0
  9
$DIMBLK
  1

  9
$DIMASO
 70
     1
  9
$DIMSHO
 70
     1
  9
$DIMPOST
  1

  9
$DIMAPOST
  1

  9
$DIMALT
 70
     0
  9
$DIMALTD
 70
     2
  9
$DIMALTF
 40
25.4
  9
$DIMLFAC
 40
1.0
  9
$DIMTOFL
 70
     0
  9
$DIMTVP
 40
0.0
  9
$DIMTIX
 70
     0
  9
$DIMSOXD
 70
     0
  9
$DIMSAH
 70
     0
  9
$DIMBLK1
  1

  9
$DIMBLK2
  1

  9
$DIMSTYLE
  2
ISO-25
  9
$DIMCLRD
 70
     0
  9
$DIMCLRE
 70
     0
  9
$DIMCLRT
 70
     0
  9
$DIMTFAC
 40
1.0
  9
$DIMGAP
 40
0.09
  9
$DIMJUST
 70
     0
  9
$DIMSD1
 70
     0
  9
$DIMSD2
 70
     0
  9
$DIMTOLJ
 70
     1
  9
$DIMTZIN
 70
     0
  9
$DIMALTZ
 70
     0
  9
$DIMALTTZ
 70
     0
  9
$DIMUPT
 70
     0
  9
$DIMDEC
 70
     4
  9
$DIMTDEC
 70
     4
  9
$DIMALTU
 70
     2
  9
$DIMALTTD
 70
     2
  9
$DIMTXSTY
  7
STANDARD
  9
$DIMAUNIT
 70
     0
  9
$DIMADEC
 70
     0
  9
$DIMALTRND
 40
0.0
  9
$DIMAZIN
 70
     0
  9
$DIMDSEP
 70
    46
  9
$DIMATFIT
 70
     3
  9
$DIMFRAC
 70
     0
  9
$DIMLDRBLK
  1

  9
$DIMLUNIT
 70
     2
  9
$DIMLWD
 70
    -2
  9
$DIMLWE
 70
    -2
  9
$DIMTMOVE
 70
     2
  9
$LUNITS
 70
     2
  9
$LUPREC
 70
     4
  9
$SKETCHINC
 40
0.1
  9
$FILLETRAD
 40
0.5
  9
$AUNITS
 70
     0
  9
$AUPREC
 70
     0
  9
$MENU
  1
.
  9
$ELEVATION
 40
0.0
  9
$PELEVATION
 40
0.0
  9
$THICKNESS
 40
0.0
  9
$LIMCHECK
 70
     0
  9
$CHAMFERA
 40
0.0
  9
$CHAMFERB
 40
0.0
  9
$CHAMFERC
 40
0.0
  9
$CHAMFERD
 40
0.0
  9
$SKPOLY
 70
     0
  9
$TDCREATE
 40
0.0
  9
$TDUCREATE
 40
0.0
  9
$TDUPDATE
 40
2458541.699609097
  9
$TDUUPDATE
 40
2458541.657942431
  9
$TDINDWG
 40
0.0000002662
  9
$TDUSRTIMER
 40
0.0196381019
  9
$USRTIMER
 70
     1
  9
$ANGBASE
 50
0.0
  9
$ANGDIR
 70
     0
  9
$PDMODE
 70
     0
  9
$PDSIZE
 40
0.0
  9
$PLINEWID
 40
0.0
  9
$SPLFRAME
 70
     0
  9
$SPLINETYPE
 70
     6
  9
$SPLINESEGS
 70
     8
  9
$HANDSEED
  5
10487
  9
$SURFTAB1
 70
     6
  9
$SURFTAB2
 70
     6
  9
$SURFTYPE
 70
     6
  9
$SURFU
 70
     6
  9
$SURFV
 70
     6
  9
$UCSBASE
  2

  9
$UCSNAME
  2

  9
$UCSORG
 10
0.0
 20
0.0
 30
0.0
  9
$UCSXDIR
 10
1.0
 20
0.0
 30
0.0
  9
$UCSYDIR
 10
0.0
 20
1.0
 30
0.0
  9
$UCSORTHOREF
  2

  9
$UCSORTHOVIEW
 70
     0
  9
$UCSORGTOP
 10
0.0
 20
0.0
 30
0.0
  9
$UCSORGBOTTOM
 10
0.0
 20
0.0
 30
0.0
  9
$UCSORGLEFT
 10
0.0
 20
0.0
 30
0.0
  9
$UCSORGRIGHT
 10
0.0
 20
0.0
 30
0.0
  9
$UCSORGFRONT
 10
0.0
 20
0.0
 30
0.0
  9
$UCSORGBACK
 10
0.0
 20
0.0
 30
0.0
  9
$PUCSBASE
  2

  9
$PUCSNAME
  2

  9
$PUCSORG
 10
0.0
 20
0.0
 30
0.0
  9
$PUCSXDIR
 10
1.0
 20
0.0
 30
0.0
  9
$PUCSYDIR
 10
0.0
 20
1.0
 30
0.0
  9
$PUCSORTHOREF
  2

  9
$PUCSORTHOVIEW
 70
     0
  9
$PUCSORGTOP
 10
0.0
 20
0.0
 30
0.0
  9
$PUCSORGBOTTOM
 10
0.0
 20
0.0
 30
0.0
  9
$PUCSORGLEFT
 10
0.0
 20
0.0
 30
0.0
  9
$PUCSORGRIGHT
 10
0.0
 20
0.0
 30
0.0
  9
$PUCSORGFRONT
 10
0.0
 20
0.0
 30
0.0
  9
$PUCSORGBACK
 10
0.0
 20
0.0
 30
0.0
  9
$USERI1
 70
     0
  9
$USERI2
 70
     0
  9
$USERI3
 70
     0
  9
$USERI4
 70
     0
  9
$USERI5
 70
     0
  9
$USERR1
 40
0.0
  9
$USERR2
 40
0.0
  9
$USERR3
 40
0.0
  9
$USERR4
 40
0.0
  9
$USERR5
 40
0.0
  9
$WORLDVIEW
 70
     1
  9
$SHADEDGE
 70
     3
  9
$SHADEDIF
 70
    70
  9
$TILEMODE
 70
     1
  9
$MAXACTVP
 70
    64
  9
$PINSBASE
 10
0.0
 20
0.0
 30
0.0
  9
$PLIMCHECK
 70
     0
  9
$PEXTMIN
 10
1.000000000000000E+20
 20
1.000000000000000E+20
 30
1.000000000000000E+20
  9
$PEXTMAX
 10
-1.000000000000000E+20
 20
-1.000000000000000E+20
 30
-1.000000000000000E+20
  9
$PLIMMIN
 10
0.0
 20
0.0
  9
$PLIMMAX
 10
0.0
 20
0.0
  9
$UNITMODE
 70
     0
  9
$VISRETAIN
 70
     1
  9
$PLINEGEN
 70
     0
  9
$PSLTSCALE
 70
     1
  9
$TREEDEPTH
 70
  3020
  9
$CMLSTYLE
  2
Standard
  9
$CMLJUST
 70
     0
  9
$CMLSCALE
 40
1.0
  9
$PROXYGRAPHICS
 70
     1
  9
$MEASUREMENT
 70
     0
  9
$CELWEIGHT
370
    -1
  9
$ENDCAPS
280
     0
  9
$JOINSTYLE
280
     0
  9
$LWDISPLAY
290
     0
  9
$INSUNITS
 70
     0
  9
$HYPERLINKBASE
  1

  9
$STYLESHEET
  1

  9
$XEDIT
290
     1
  9
$CEPSNTYPE
380
     0
  9
$PSTYLEMODE
290
     1
  9
$FINGERPRINTGUID
  2
{51223d3f-35ea-4c14-b59c-e89bd0be486b}
  9
$VERSIONGUID
  2
{FAEB1C32-E019-11D5-929B-00C0DF256EC4}
  9
$EXTNAMES
290
     1
  9
$PSVPSCALE
 40
0.0
  9
$OLESTARTUP
290
     0
  9
$SORTENTS
280
   127
  9
$INDEXCTL
280
     0
  9
$HIDETEXT
280
     1
  9
$XCLIPFRAME
290
     0
  9
$HALOGAP
280
     0
  9
$OBSCOLOR
 70
   257
  9
$OBSLTYPE
280
     0
  9
$INTERSECTIONDISPLAY
280
     0
  9
$INTERSECTIONCOLOR
 70
   257
  9
$DIMASSOC
280
     2
  9
$PROJECTNAME
  1

  0
ENDSEC
  0
SECTION
  2
CLASSES
  0
CLASS
  1
ACDBDICTIONARYWDFLT
  2
AcDbDictionaryWithDefault
  3
ObjectDBX Classes
 90
        0
 91
        6
280
     0
281
     0
  0
CLASS
  1
MATERIAL
  2
AcDbMaterial
  3
ObjectDBX Classes
 90
     1153
 91
        6
280
     0
281
     0
  0
CLASS
  1
SCALE
  2
AcDbScale
  3
ObjectDBX Classes
 90
     1153
 91
        6
280
     0
281
     0
  0
CLASS
  1
VISUALSTYLE
  2
AcDbVisualStyle
  3
ObjectDBX Classes
 90
     4095
 91
        6
280
     0
281
     0
  0
CLASS
  1
TABLESTYLE
  2
AcDbTableStyle
  3
ObjectDBX Classes
 90
     4095
 91
        6
280
     0
281
     0
  0
CLASS
  1
MLEADERSTYLE
  2
AcDbMLeaderStyle
  3
ACDB_MLEADERSTYLE_CLASS
 90
     4095
 91
        6
280
     0
281
     0
  0
CLASS
  1
DICTIONARYVAR
  2
AcDbDictionaryVar
  3
ObjectDBX Classes
 90
        0
 91
        6
280
     0
281
     0
  0
CLASS
  1
CELLSTYLEMAP
  2
AcDbCellStyleMap
  3
ObjectDBX Classes
 90
     1152
 91
        6
280
     0
281
     0
  0
ENDSEC
  0
SECTION
  2
TABLES
  0
TABLE
  2
VPORT
  5
103EF
330
0
100
AcDbSymbolTable
 70
     1
  0
VPORT
  5
10406
330
103EF
100
AcDbSymbolTableRecord
100
AcDbViewportTableRecord
  2
*ACTIVE
 70
     0
 10
0.0
 20
0.0
 11
1.0
 21
1.0
 12
93.59584477896635
 22
44.31931011272131
 13
0.0
 23
0.0
 14
10.0
 24
10.0
 15
10.0
 25
10.0
 16
0.0
 26
0.0
 36
1.0
 17
0.0
 27
0.0
 37
0.0
 40
142.8800678833008
 41
2.022653721682848
 42
50.0
 43
0.0
 44
0.0
 50
0.0
 51
0.0
 71
    16
 72
   100
 73
     1
 74
     3
 75
     0
 76
     0
 77
     0
 78
     0
281
     0
 65
     0
110
0.0
120
0.0
130
0.0
111
1.0
121
0.0
131
0.0
112
0.0
122
1.0
132
0.0
 79
     0
146
0.0
  0
ENDTAB
  0
TABLE
  2
LTYPE
  5
103EC
330
0
100
AcDbSymbolTable
 70
     1
  0
LTYPE
  5
103FA
330
103EC
100
AcDbSymbolTableRecord
100
AcDbLinetypeTableRecord
  2
ByBlock
 70
     0
  3

 72
    65
 73
     0
 40
0.0
  0
LTYPE
  5
103FB
330
103EC
100
AcDbSymbolTableRecord
100
AcDbLinetypeTableRecord
  2
ByLayer
 70
     0
  3

 72
    65
 73
     0
 40
0.0
  0
LTYPE
  5
103FC
330
103EC
100
AcDbSymbolTableRecord
100
AcDbLinetypeTableRecord
  2
CONTINUOUS
 70
     0
  3
Solid line
 72
    65
 73
     0
 40
0.0
  0
ENDTAB
  0
TABLE
  2
LAYER
  5
103E9
330
0
100
AcDbSymbolTable
 70
     1
  0
LAYER
  5
103F7
330
103E9
100
AcDbSymbolTableRecord
100
AcDbLayerTableRecord
  2
0
 70
     0
 62
     7
  6
CONTINUOUS
370
    -3
390
103F6
  0
ENDTAB
  0
TABLE
  2
STYLE
  5
103EA
330
0
100
AcDbSymbolTable
 70
     1
  0
STYLE
  5
103F8
330
103EA
100
AcDbSymbolTableRecord
100
AcDbTextStyleTableRecord
  2
STANDARD
 70
     0
 40
0.0
 41
1.0
 50
0.0
 71
     0
 42
2.5
  3
txt
  4

  0
ENDTAB
  0
TABLE
  2
VIEW
  5
103ED
330
0
100
AcDbSymbolTable
 70
     0
  0
ENDTAB
  0
TABLE
  2
UCS
  5
103EE
330
0
100
AcDbSymbolTable
 70
     0
  0
ENDTAB
  0
TABLE
  2
APPID
  5
103F0
330
0
100
AcDbSymbolTable
 70
     2
  0
APPID
  5
103F9
330
103F0
100
AcDbSymbolTableRecord
100
AcDbRegAppTableRecord
  2
ACAD
 70
     0
  0
APPID
  5
1040F
330
103F0
100
AcDbSymbolTableRecord
100
AcDbRegAppTableRecord
  2
ACAD_MLEADERVER
 70
     0
  0
ENDTAB
  0
TABLE
  2
DIMSTYLE
  5
103F1
330
0
100
AcDbSymbolTable
 70
     1
100
AcDbDimStyleTable
  0
DIMSTYLE
105
10410
330
103F1
100
AcDbSymbolTableRecord
100
AcDbDimStyleTableRecord
  2
ISO-25
 70
     0
 41
2.5
 42
0.625
 43
3.75
 44
1.25
 73
     0
 74
     0
 77
     1
 78
     8
140
2.5
141
2.5
143
0.03937007874016
147
0.625
171
     3
172
     1
178
     0
340
103F8
  0
ENDTAB
  0
TABLE
  2
BLOCK_RECORD
  5
103E8
330
0
100
AcDbSymbolTable
 70
     0
  0
BLOCK_RECORD
  5
10403
330
103E8
100
AcDbSymbolTableRecord
100
AcDbBlockTableRecord
  2
*Model_Space
340
10404
  0
BLOCK_RECORD
  5
10401
330
103E8
100
AcDbSymbolTableRecord
100
AcDbBlockTableRecord
  2
*Paper_Space
340
10402
  0
ENDTAB
  0
ENDSEC
  0
SECTION
  2
BLOCKS
  0
BLOCK
  5
10411
330
10403
100
AcDbEntity
  8
0
100
AcDbBlockBegin
  2
*Model_Space
 70
     0
 10
0.0
 20
0.0
 30
0.0
  3
*Model_Space
  1

  0
ENDBLK
  5
21
330
10403
100
AcDbEntity
  8
0
100
AcDbBlockEnd
  0
BLOCK
  5
10412
330
10401
100
AcDbEntity
 67
     1
  8
0
100
AcDbBlockBegin
  2
*Paper_Space
 70
     0
 10
0.0
 20
0.0
 30
0.0
  3
*Paper_Space
  1

  0
ENDBLK
  5
1D
330
10401
100
AcDbEntity
 67
     1
  8
0
100
AcDbBlockEnd
  0
ENDSEC
  0
SECTION
  2
ENTITIES
  0
LINE
  5
100
330
10403
100
AcDbEntity
  8
0
 62
     7
100
AcDbLine
 10
57.61975326802735
 20
23.70644385837269
 30
0.0
 11
56.16060830802735
 21
27.4014240983727
 31
0.0
  0
LWPOLYLINE
  5
101
330
10403
100
AcDbEntity
  8
0
 62
     7
100
AcDbPolyline
 90
       25
 70
     0
 43
0.0
 10
56.16060830802735
 20
27.4014240983727
 10
56.13381957623918
 20
27.46454231735418
 10
56.1040839137218
 20
27.52576021522455
 10
56.0715041497461
 20
27.5850079533727
 10
56.03618311358291
 20
27.64221569318751
 10
55.99822363450306
 20
27.69731359605788
 10
55.95772854177736
 20
27.7502318233727
 10
55.91480066467666
 20
27.80090053652085
 10
55.86954283247181
 20
27.84924989689122
 10
55.8220578744336
 20
27.8952100658727
 10
55.77244861983291
 20
27.93871120485417
 10
55.72081789794055
 20
27.97968347522455
 10
55.66726853802735
 20
28.0180570383727
 10
55.61190336936416
 20
28.05376205568751
 10
55.5548252212218
 20
28.08672868855788
 10
55.49613692287111
 20
28.1168870983727
 10
55.43594130358291
 20
28.14416744652085
 10
55.37434119262805
 20
28.16849989439122
 10
55.31143941927735
 20
28.1898146033727
 10
55.24733881280165
 20
28.20804173485418
 10
55.1821422024718
 20
28.22311145022455
 10
55.1159524175586
 20
28.2349539108727
 10
55.04887228733292
 20
28.24349927818751
 10
54.98100464106555
 20
28.24867771355788
 10
54.91245230802735
 20
28.2504193783727
  0
LINE
  5
102
330
10403
100
AcDbEntity
  8
0
 62
     7
100
AcDbLine
 10
54.91245230802735
 20
28.2504193783727
 30
0.0
 11
49.89108350802735
 21
28.2504193783727
 31
0.0
  0
LWPOLYLINE
  5
103
330
10403
100
AcDbEntity
  8
0
 62
     7
100
AcDbPolyline
 90
       25
 70
     0
 43
0.0
 10
49.89108350802735
 20
28.2504193783727
 10
49.97208057328777
 20
28.25215332661923
 10
50.05250811344403
 20
28.25732095934492
 10
50.1322735250586
 20
28.26587095852895
 10
50.21128420469402
 20
28.27775200615048
 10
50.28944754891277
 20
28.29291278418867
 10
50.36667095427736
 20
28.31130197462269
 10
50.44286181735028
 20
28.33286825943172
 10
50.51792753469402
 20
28.35756032059492
 10
50.5917755028711
 20
28.38532684009144
 10
50.66431311844403
 20
28.41611649990048
 10
50.73544777797528
 20
28.44987798200117
 10
50.80508687802735
 20
28.4865599683727
 10
50.87313781516278
 20
28.52611114099423
 10
50.93950798594403
 20
28.56848018184492
 10
51.0041047869336
 20
28.61361577290394
 10
51.06683561469403
 20
28.66146659615048
 10
51.12760786578777
 20
28.71198133356367
 10
51.18632893677736
 20
28.7651086671227
 10
51.24290622422527
 20
28.82079727880672
 10
51.29724712469402
 20
28.87899585059492
 10
51.3492590347461
 20
28.93965306446645
 10
51.39884935094403
 20
29.00271760240047
 10
51.44592546985027
 20
29.06813814637617
 10
51.49039478802736
 20
29.1358633783727
  0
LWPOLYLINE
  5
104
330
10403
100
AcDbEntity
  8
0
 62
     7
100
AcDbPolyline
 90
       25
 70
     0
 43
0.0
 10
51.49039478802736
 20
29.1358633783727
 10
51.78763949511068
 20
29.63645255363311
 10
52.05903683636069
 20
30.14725513212269
 10
52.30458681177735
 20
30.66734269290394
 10
52.52428942136069
 20
31.19578681503936
 10
52.71814466511069
 20
31.73165907759144
 10
52.88615254302736
 20
32.2740310596227
 10
53.02831305511069
 20
32.82197434019561
 10
53.14462620136068
 20
33.37456049837269
 10
53.23509198177735
 20
33.93086111321644
 10
53.29971039636069
 20
34.48994776378937
 10
53.33848144511069
 20
35.05089202915395
 10
53.35140512802735
 20
35.6127654883727
 10
53.33848144511069
 20
36.17463972050811
 10
53.29971039636069
 20
36.7355863046227
 10
53.23509198177735
 20
37.29467681977895
 10
53.14462620136069
 20
37.85098284503937
 10
53.02831305511069
 20
38.40357595946644
 10
52.88615254302735
 20
38.95152774212269
 10
52.71814466511069
 20
39.49390977207062
 10
52.52428942136069
 20
40.0297936283727
 10
52.30458681177736
 20
40.55825089009144
 10
52.05903683636069
 20
41.07835313628936
 10
51.78763949511068
 20
41.58917194602894
 10
51.49039478802736
 20
42.08977889837269
  0
LWPOLYLINE
  5
105
330
10403
100
AcDbEntity
  8
0
 62
     7
100
AcDbPolyline
 90
       25
 70
     0
 43
0.0
 10
51.49039478802736
 20
42.08977889837269
 10
51.44592545915582
 20
42.15752185106367
 10
51.39884926538846
 20
42.22295863990048
 10
51.3492587459961
 20
42.28603801102894
 10
51.29724644024958
 20
42.34670871059492
 10
51.24290488741972
 20
42.40491948474423
 10
51.18632662677735
 20
42.4606190796227
 10
51.12760419759333
 20
42.51375624137616
 10
51.06683013913847
 20
42.56427971615047
 10
51.00409699068361
 20
42.61213825009144
 10
50.93949729149958
 20
42.65728058934491
 10
50.87312358085722
 20
42.69965548005673
 10
50.80506839802736
 20
42.73921166837269
 10
50.73542428228083
 20
42.77589790043866
 10
50.66428377288847
 20
42.80966292240046
 10
50.59173940912112
 20
42.84045548040395
 10
50.51788373024959
 20
42.86822432059492
 10
50.44280927554471
 20
42.89291818911922
 10
50.36660858427736
 20
42.91448583212269
 10
50.28937419571832
 20
42.93287599575117
 10
50.21119864913847
 20
42.94803742615047
 10
50.1321744838086
 20
42.95991886946644
 10
50.05239423899958
 20
42.96846907184492
 10
49.97195045398222
 20
42.97363677943171
 10
49.89093566802735
 20
42.9753707383727
  0
LINE
  5
106
330
10403
100
AcDbEntity
  8
0
 62
     7
100
AcDbLine
 10
49.89093566802735
 20
42.9753707383727
 30
0.0
 11
48.20968854802735
 21
42.9753707383727
 31
0.0
  0
LINE
  5
107
330
10403
100
AcDbEntity
  8
0
 62
     7
100
AcDbLine
 10
48.20968854802735
 20
42.9753707383727
 30
0.0
 11
48.20968854802735
 21
47.61891425837269
 31
0.0
  0
LINE
  5
108
330
10403
100
AcDbEntity
  8
0
 62
     7
100
AcDbLine
 10
48.20968854802735
 20
47.61891425837269
 30
0.0
 11
49.07661166802735
 21
47.61891425837269
 31
0.0
  0
LWPOLYLINE
  5
109
330
10403
100
AcDbEntity
  8
0
 62
     7
100
AcDbPolyline
 90
       25
 70
     0
 43
0.0
 10
49.07661166802735
 20
47.61891425837269
 10
49.14303104289426
 20
47.62115279169445
 10
49.20825017029587
 20
47.62777201494677
 10
49.27212448443361
 20
47.63862736306019
 10
49.33450941950883
 20
47.65357427096529
 10
49.39526040972297
 20
47.67246817359261
 10
49.45423288927736
 20
47.6951645058727
 10
49.51128229237343
 20
47.72151870273612
 10
49.56626405321254
 20
47.75138619911343
 10
49.61903360599611
 20
47.7846224299352
 10
49.66944638492551
 20
47.82108283013196
 10
49.71735782420213
 20
47.86062283463427
 10
49.76262335802735
 20
47.90309787837269
 10
49.80509842060259
 20
47.94836339627779
 10
49.84463844612921
 20
47.9962748232801
 10
49.88109886880861
 20
48.04668759431019
 10
49.91433512284217
 20
48.09945714429863
 10
49.94420264243129
 20
48.15443890817595
 10
49.97055686177735
 20
48.21148832087269
 10
49.99325321508175
 20
48.27046081731945
 10
50.01214713654587
 20
48.33121183244677
 10
50.0270940603711
 20
48.3935968011852
 10
50.03794942075884
 20
48.4574711584653
 10
50.04456865191046
 20
48.5226903392176
 10
50.04680718802736
 20
48.58910977837269
  0
LINE
  5
10A
330
10403
100
AcDbEntity
  8
0
 62
     7
100
AcDbLine
 10
50.04680718802736
 20
48.58910977837269
 30
0.0
 11
50.04680718802736
 21
49.65176073837269
 31
0.0
  0
LWPOLYLINE
  5
10B
330
10403
100
AcDbEntity
  8
0
 62
     7
100
AcDbPolyline
 90
       25
 70
     0
 43
0.0
 10
50.04680718802736
 20
49.65176073837269
 10
50.04456865191046
 20
49.7181801132396
 10
50.03794942075884
 20
49.78339924064121
 10
50.0270940603711
 20
49.84727355477895
 10
50.01214713654588
 20
49.90965848985419
 10
49.99325321508176
 20
49.9704094800683
 10
49.97055686177736
 20
50.0293819596227
 10
49.94420264243129
 20
50.08643136271877
 10
49.91433512284217
 20
50.14141312355788
 10
49.88109886880861
 20
50.19418267634145
 10
49.84463844612922
 20
50.24459545527085
 10
49.80509842060259
 20
50.29250689454746
 10
49.76262335802735
 20
50.33777242837269
 10
49.71735782420213
 20
50.38024749094793
 10
49.66944638492551
 20
50.41978751647456
 10
49.61903360599611
 20
50.45624793915395
 10
49.56626405321254
 20
50.48948419318751
 10
49.51128229237343
 20
50.51935171277664
 10
49.45423288927734
 20
50.5457059321227
 10
49.39526040972297
 20
50.5684022854271
 10
49.33450941950883
 20
50.58729620689122
 10
49.2721244844336
 20
50.60224313071645
 10
49.20825017029588
 20
50.61309849110418
 10
49.14303104289426
 20
50.6197177222558
 10
49.07661166802735
 20
50.6219562583727
  0
LINE
  5
10C
330
10403
100
AcDbEntity
  8
0
 62
     7
100
AcDbLine
 10
49.07661166802735
 20
50.6219562583727
 30
0.0
 11
41.93734918802735
 21
50.6219562583727
 31
0.0
  0
LWPOLYLINE
  5
10D
330
10403
100
AcDbEntity
  8
0
 62
     7
100
AcDbPolyline
 90
       25
 70
     0
 43
0.0
 10
41.93734918802735
 20
50.6219562583727
 10
41.87092974887226
 20
50.6197177222558
 10
41.80571056811995
 20
50.61309849110418
 10
41.74183621083986
 20
50.60224313071645
 10
41.67945124210143
 20
50.58729620689122
 10
41.61870022697411
 20
50.56840228542711
 10
41.55972773052736
 20
50.5457059321227
 10
41.5026783178306
 20
50.51935171277663
 10
41.44769655395329
 20
50.48948419318751
 10
41.39492700396485
 20
50.45624793915394
 10
41.34451423293476
 20
50.41978751647456
 10
41.29660280593244
 20
50.38024749094793
 10
41.25133728802736
 20
50.33777242837269
 10
41.20886224428894
 20
50.29250689454746
 10
41.16932223978661
 20
50.24459545527085
 10
41.13286183958985
 20
50.19418267634145
 10
41.0996256087681
 20
50.14141312355788
 10
41.06975811239078
 20
50.08643136271877
 10
41.04340391552735
 20
50.0293819596227
 10
41.02070758324726
 20
49.97040948006829
 10
41.00181368061995
 20
49.90965848985417
 10
40.98686677271486
 20
49.84727355477895
 10
40.97601142460143
 20
49.78339924064122
 10
40.96939220134912
 20
49.7181801132396
 10
40.96715366802736
 20
49.65176073837269
  0
LINE
  5
10E
330
10403
100
AcDbEntity
  8
0
 62
     7
100
AcDbLine
 10
40.96715366802736
 20
49.65176073837269
 30
0.0
 11
40.96715366802736
 21
48.58910977837269
 31
0.0
  0
LWPOLYLINE
  5
10F
330
10403
100
AcDbEntity
  8
0
 62
     7
100
AcDbPolyline
 90
       25
 70
     0
 43
0.0
 10
40.96715366802736
 20
48.58910977837269
 10
40.96939220134912
 20
48.52269033921761
 10
40.97601142460143
 20
48.4574711584653
 10
40.98686677271486
 20
48.3935968011852
 10
41.00181368061995
 20
48.33121183244677
 10
41.02070758324726
 20
48.27046081731946
 10
41.04340391552735
 20
48.21148832087269
 10
41.06975811239078
 20
48.15443890817593
 10
41.0996256087681
 20
48.09945714429863
 10
41.13286183958985
 20
48.04668759431019
 10
41.16932223978661
 20
47.99627482328011
 10
41.20886224428892
 20
47.94836339627779
 10
41.25133728802736
 20
47.90309787837269
 10
41.29660280593244
 20
47.86062283463427
 10
41.34451423293476
 20
47.82108283013196
 10
41.39492700396485
 20
47.7846224299352
 10
41.44769655395329
 20
47.75138619911343
 10
41.5026783178306
 20
47.72151870273612
 10
41.55972773052736
 20
47.6951645058727
 10
41.61870022697411
 20
47.67246817359261
 10
41.67945124210143
 20
47.65357427096529
 10
41.74183621083985
 20
47.63862736306019
 10
41.80571056811996
 20
47.62777201494677
 10
41.87092974887226
 20
47.62115279169445
 10
41.93734918802735
 20
47.61891425837269
  0
LINE
  5
110
330
10403
100
AcDbEntity
  8
0
 62
     7
100
AcDbLine
 10
41.93734918802735
 20
47.61891425837269
 30
0.0
 11
42.80427230802735
 21
47.61891425837269
 31
0.0
  0
LINE
  5
111
330
10403
100
AcDbEntity
  8
0
 62
     7
100
AcDbLine
 10
42.80427230802735
 20
47.61891425837269
 30
0.0
 11
42.80427230802735
 21
42.9750744983727
 31
0.0
  0
LINE
  5
112
330
10403
100
AcDbEntity
  8
0
 62
     7
100
AcDbLine
 10
42.80427230802735
 20
42.9750744983727
 30
0.0
 11
37.04518190802736
 21
42.9750744983727
 31
0.0
  0
LINE
  5
113
330
10403
100
AcDbEntity
  8
0
 62
     7
100
AcDbLine
 10
37.04518190802736
 20
42.9750744983727
 30
0.0
 11
37.04518190802736
 21
51.2060289783727
 31
0.0
  0
LWPOLYLINE
  5
114
330
10403
100
AcDbEntity
  8
0
 62
     7
100
AcDbPolyline
 90
       25
 70
     0
 43
0.0
 10
37.04518190802736
 20
51.2060289783727
 10
37.0420859718468
 20
51.29792387153822
 10
37.03293141024958
 20
51.3881558070301
 10
37.01791809365236
 20
51.47652497884146
 10
36.9972458924718
 20
51.5628315809653
 10
36.97111467712458
 20
51.64687580739469
 10
36.93972431802736
 20
51.72845785212269
 10
36.9032746855968
 20
51.80737790914237
 10
36.86196565024958
 20
51.88343617244677
 10
36.81599708240235
 20
51.95643283602895
 10
36.7655688524718
 20
52.02616809388197
 10
36.71088083087458
 20
52.09244213999885
 10
36.65213288802736
 20
52.1550551683727
 10
36.5895248943468
 20
52.21380737299654
 10
36.52325672024958
 20
52.26849894786343
 10
36.45352823615235
 20
52.31893008696645
 10
36.3805393124718
 20
52.36490098429863
 10
36.30448981962458
 20
52.40621183385304
 10
36.22557962802736
 20
52.4426628296227
 10
36.1440086080968
 20
52.47405416560071
 10
36.05997663024958
 20
52.5001860357801
 10
35.97368356490236
 20
52.52085863415395
 10
35.8853292824718
 20
52.53587215471529
 10
35.79511365337457
 20
52.54502679145719
 10
35.70323654802735
 20
52.5481227383727
  0
LINE
  5
115
330
10403
100
AcDbEntity
  8
0
 62
     7
100
AcDbLine
 10
35.70323654802735
 20
52.5481227383727
 30
0.0
 11
16.29192126802736
 21
52.5481227383727
 31
0.0
  0
LWPOLYLINE
  5
116
330
10403
100
AcDbEntity
  8
0
 62
     7
100
AcDbPolyline
 90
       25
 70
     0
 43
0.0
 10
16.29192126802736
 20
52.5481227383727
 10
16.20004416268013
 20
52.5450267914572
 10
16.10982853358291
 20
52.53587215471529
 10
16.02147425115236
 20
52.52085863415395
 10
15.93518118580513
 20
52.50018603578012
 10
15.85114920795791
 20
52.47405416560071
 10
15.76957818802735
 20
52.4426628296227
 10
15.69066799643013
 20
52.40621183385302
 10
15.61461850358291
 20
52.36490098429863
 10
15.54162957990235
 20
52.31893008696645
 10
15.47190109580513
 20
52.26849894786343
 10
15.40563292170791
 20
52.21380737299654
 10
15.34302492802735
 20
52.1550551683727
 10
15.28427698518013
 20
52.09244213999885
 10
15.22958896358291
 20
52.02616809388196
 10
15.17916073365236
 20
51.95643283602895
 10
15.13319216580513
 20
51.88343617244678
 10
15.09188313045791
 20
51.80737790914238
 10
15.05543349802736
 20
51.72845785212269
 10
15.02404313893013
 20
51.64687580739469
 10
14.99791192358291
 20
51.56283158096529
 10
14.97723972240236
 20
51.47652497884146
 10
14.96222640580513
 20
51.38815580703011
 10
14.95307184420791
 20
51.2979238715382
 10
14.94997590802735
 20
51.2060289783727
  0
LINE
  5
117
330
10403
100
AcDbEntity
  8
0
 62
     7
100
AcDbLine
 10
14.94997590802735
 20
51.2060289783727
 30
0.0
 11
14.94997590802735
 21
49.15021689837269
 31
0.0
  0
LWPOLYLINE
  5
118
330
10403
100
AcDbEntity
  8
0
 62
     7
100
AcDbPolyline
 90
       25
 70
     0
 43
0.0
 10
14.94997590802735
 20
49.15021689837269
 10
14.95307184420791
 20
49.05833979018983
 10
14.96222640580513
 20
48.96812415290974
 10
14.97723972240236
 20
48.8797698574352
 10
14.99791192358291
 20
48.793476774669
 10
15.02404313893013
 20
48.7094447755139
 10
15.05543349802736
 20
48.6278737308727
 10
15.09188313045791
 20
48.54896351164815
 10
15.13319216580513
 20
48.47291398874307
 10
15.17916073365236
 20
48.39992503306019
 10
15.22958896358291
 20
48.33019651550234
 10
15.28427698518013
 20
48.26392830697224
 10
15.34302492802735
 20
48.20132027837269
 10
15.40563292170791
 20
48.1425723006065
 10
15.47190109580513
 20
48.0878842445764
 10
15.54162957990235
 20
48.0374559811852
 10
15.61461850358291
 20
47.99148738133566
 10
15.69066799643013
 20
47.95017831593057
 10
15.76957818802735
 20
47.9137286558727
 10
15.85114920795791
 20
47.88233827206483
 10
15.93518118580513
 20
47.85620703540974
 10
16.02147425115236
 20
47.8355348168102
 10
16.10982853358291
 20
47.820521487169
 10
16.20004416268013
 20
47.81136691738891
 10
16.29192126802736
 20
47.80827097837269
  0
LINE
  5
119
330
10403
100
AcDbEntity
  8
0
 62
     7
100
AcDbLine
 10
16.29192126802736
 20
47.80827097837269
 30
0.0
 11
17.78855318802736
 21
47.80827097837269
 31
0.0
  0
LINE
  5
11A
330
10403
100
AcDbEntity
  8
0
 62
     7
100
AcDbLine
 10
17.78855318802736
 20
47.80827097837269
 30
0.0
 11
17.78855318802736
 21
28.2502709783727
 31
0.0
  0
LINE
  5
11B
330
10403
100
AcDbEntity
  8
0
 62
     7
100
AcDbLine
 10
17.78855318802736
 20
28.2502709783727
 30
0.0
 11
16.29192126802736
 21
28.2502709783727
 31
0.0
  0
LWPOLYLINE
  5
11C
330
10403
100
AcDbEntity
  8
0
 62
     7
100
AcDbPolyline
 90
       25
 70
     0
 43
0.0
 10
16.29192126802736
 20
28.2502709783727
 10
16.20004416268013
 20
28.24717504219214
 10
16.10982853358291
 20
28.23802048059492
 10
16.02147425115236
 20
28.2230071639977
 10
15.93518118580513
 20
28.20233496281715
 10
15.85114920795791
 20
28.17620374746992
 10
15.76957818802735
 20
28.1448133883727
 10
15.69066799643013
 20
28.10836375594215
 10
15.61461850358291
 20
28.06705472059492
 10
15.54162957990235
 20
28.0210861527477
 10
15.47190109580513
 20
27.97065792281714
 10
15.40563292170791
 20
27.91596990121992
 10
15.34302492802735
 20
27.85722195837269
 10
15.28427698518013
 20
27.79461396469214
 10
15.22958896358291
 20
27.72834579059492
 10
15.17916073365236
 20
27.6586173064977
 10
15.13319216580513
 20
27.58562838281714
 10
15.09188313045791
 20
27.50957888996992
 10
15.05543349802736
 20
27.4306686983727
 10
15.02404313893013
 20
27.34909767844214
 10
14.99791192358291
 20
27.26506570059492
 10
14.97723972240236
 20
27.1787726352477
 10
14.96222640580513
 20
27.09041835281715
 10
14.95307184420791
 20
27.00020272371992
 10
14.94997590802735
 20
26.9083256183727
  0
LINE
  5
11D
330
10403
100
AcDbEntity
  8
0
 62
     7
100
AcDbLine
 10
14.94997590802735
 20
26.9083256183727
 30
0.0
 11
14.94997590802735
 21
23.2133453783727
 31
0.0
  0
LWPOLYLINE
  5
11E
330
10403
100
AcDbEntity
  8
0
 62
     7
100
AcDbPolyline
 90
       25
 70
     0
 43
0.0
 10
14.94997590802735
 20
23.2133453783727
 10
14.95307184420791
 20
23.12145054949538
 10
14.96222640580513
 20
23.03121866735418
 10
14.97723972240236
 20
22.9428495386852
 10
14.99791192358291
 20
22.85654297022455
 10
15.02404313893013
 20
22.77249876870835
 10
15.05543349802736
 20
22.69091674087269
 10
15.09188313045791
 20
22.61199669345372
 10
15.13319216580513
 20
22.53593843318751
 10
15.17916073365236
 20
22.4629417668102
 10
15.22958896358291
 20
22.39320650105788
 10
15.28427698518013
 20
22.32693244266668
 10
15.34302492802735
 20
22.2643193983727
 10
15.40563292170791
 20
22.20556717491205
 10
15.47190109580513
 20
22.15087557902085
 10
15.54162957990235
 20
22.1004444174352
 10
15.61461850358291
 20
22.05447349689122
 10
15.69066799643013
 20
22.01316262412501
 10
15.76957818802735
 20
21.97671160587269
 10
15.85114920795791
 20
21.94532024887038
 10
15.93518118580513
 20
21.91918835985418
 10
16.02147425115236
 20
21.8985157455602
 10
16.10982853358291
 20
21.88350221272454
 10
16.20004416268013
 20
21.87434756808334
 10
16.29192126802736
 20
21.8712516183727
  0
LINE
  5
11F
330
10403
100
AcDbEntity
  8
0
 62
     7
100
AcDbLine
 10
16.29192126802736
 20
21.8712516183727
 30
0.0
 11
19.20813750802736
 21
21.8712516183727
 31
0.0
  0
LINE
  5
120
330
10403
100
AcDbEntity
  8
0
 62
     7
100
AcDbLine
 10
19.20813750802736
 20
21.8712516183727
 30
0.0
 11
19.20813750802736
 21
21.8714000183727
 31
0.0
  0
LWPOLYLINE
  5
121
330
10403
100
AcDbEntity
  8
0
 62
     7
100
AcDbPolyline
 90
       25
 70
     0
 43
0.0
 10
19.20813750802736
 20
21.8714000183727
 10
19.2272448889417
 20
22.43655942678705
 10
19.28373998200884
 20
22.99162376235418
 10
19.37638221271486
 20
23.5353524505602
 10
19.50393100654587
 20
24.06650491689122
 10
19.665145788988
 20
24.58384058683334
 10
19.85878598552735
 20
25.0861188858727
 10
20.08361102165004
 20
25.57209923949538
 10
20.33838032284217
 20
26.04054107318751
 10
20.62185331458986
 20
26.4902038124352
 10
20.93278942237921
 20
26.91984688272455
 10
21.26994807169633
 20
27.32822970954167
 10
21.63208868802736
 20
27.7141117183727
 10
22.01797069685837
 20
28.07625233470372
 10
22.42635352367551
 20
28.41341098402085
 10
22.85599659396485
 20
28.7243470918102
 10
23.30565933321254
 20
29.00782008355787
 10
23.77410116690467
 20
29.26258938475001
 10
24.26008152052735
 20
29.4874144208727
 10
24.76235981956671
 20
29.68105461741205
 10
25.27969548950884
 20
29.84226939985418
 10
25.81084795583985
 20
29.9698181936852
 10
26.35457664404587
 20
30.06246042439122
 10
26.909640979613
 20
30.11895551745834
 10
27.47480038802735
 20
30.1380628983727
  0
LWPOLYLINE
  5
122
330
10403
100
AcDbEntity
  8
0
 62
     7
100
AcDbPolyline
 90
       25
 70
     0
 43
0.0
 10
27.47480038802735
 20
30.1380628983727
 10
28.03996061217667
 20
30.11895551745835
 10
28.59502716955513
 20
30.06246042439121
 10
29.1387593575586
 20
29.96981819368519
 10
29.66991647358291
 20
29.84226939985418
 10
30.18725781502388
 20
29.68105461741205
 10
30.68954267927735
 20
29.4874144208727
 10
31.17553036373916
 20
29.26258938475001
 10
31.64398016580513
 20
29.00782008355788
 10
32.0936513828711
 20
28.7243470918102
 10
32.52330331233291
 20
28.41341098402085
 10
32.93169525158638
 20
28.07625233470372
 10
33.31758649802735
 20
27.7141117183727
 10
33.67973634905165
 20
27.32822970954167
 10
34.01690410205514
 20
26.91984688272455
 10
34.32784905443361
 20
26.4902038124352
 10
34.61133050358291
 20
26.04054107318751
 10
34.86610774689888
 20
25.57209923949538
 10
35.09094008177735
 20
25.0861188858727
 10
35.28458680561415
 20
24.58384058683334
 10
35.44580721580513
 20
24.06650491689122
 10
35.5733606097461
 20
23.5353524505602
 10
35.66600628483292
 20
22.99162376235418
 10
35.72250353846138
 20
22.43655942678705
 10
35.74161166802736
 20
21.8714000183727
  0
LINE
  5
123
330
10403
100
AcDbEntity
  8
0
 62
     7
100
AcDbLine
 10
35.74161166802736
 20
21.8714000183727
 30
0.0
 11
35.74161166802736
 21
21.8712516183727
 31
0.0
  0
LINE
  5
124
330
10403
100
AcDbEntity
  8
0
 62
     7
100
AcDbLine
 10
35.74161166802736
 20
21.8712516183727
 30
0.0
 11
39.74092614802736
 21
21.8712516183727
 31
0.0
  0
LWPOLYLINE
  5
125
330
10403
100
AcDbEntity
  8
0
 62
     7
100
AcDbPolyline
 90
       25
 70
     0
 43
0.0
 10
39.74092614802736
 20
21.8712516183727
 10
39.84554873387226
 20
22.19788304660187
 10
39.96707408311995
 20
22.5166343108727
 10
40.10496914333985
 20
22.8269703005602
 10
40.25870086210143
 20
23.12835590503937
 10
40.42773618697412
 20
23.4202560136852
 10
40.61154206552735
 20
23.7021355158727
 10
40.8095854453306
 20
23.97345930097687
 10
41.02133327395328
 20
24.2336922583727
 10
41.24625249896485
 20
24.4822992774352
 10
41.48381006793476
 20
24.71874524753936
 10
41.73347292843246
 20
24.9424950580602
 10
41.99470802802735
 20
25.1530135983727
 10
42.26698231428893
 20
25.34976575785186
 10
42.54976273478661
 20
25.5322164258727
 10
42.84251623708987
 20
25.6998304918102
 10
43.1447097687681
 20
25.85207284503936
 10
43.45581027739079
 20
25.9884083749352
 10
43.77528471052735
 20
26.10830197087269
 10
44.10260001574726
 20
26.21121852222686
 10
44.43722314061995
 20
26.29662291837269
 10
44.77862103271485
 20
26.3639800486852
 10
45.12626063960143
 20
26.41275480253937
 10
45.47960890884911
 20
26.44241206931019
 10
45.83813278802735
 20
26.45241673837269
  0
LWPOLYLINE
  5
126
330
10403
100
AcDbEntity
  8
0
 62
     7
100
AcDbPolyline
 90
       25
 70
     0
 43
0.0
 10
45.83813278802735
 20
26.45241673837269
 10
46.19665741861185
 20
26.44241206931019
 10
46.55000785603661
 20
26.41275480253936
 10
46.89765091880861
 20
26.3639800486852
 10
47.23905342543478
 20
26.29662291837269
 10
47.57368219442203
 20
26.21121852222686
 10
47.90100404427736
 20
26.1083019708727
 10
48.22048579350768
 20
25.9884083749352
 10
48.53159426061995
 20
25.85207284503937
 10
48.83379626412111
 20
25.6998304918102
 10
49.1265586225181
 20
25.5322164258727
 10
49.40934815431787
 20
25.34976575785186
 10
49.68163167802735
 20
25.1530135983727
 10
49.94287601215351
 20
24.9424950580602
 10
50.19254797520329
 20
24.71874524753936
 10
50.4301143856836
 20
24.4822992774352
 10
50.65504206210143
 20
24.2336922583727
 10
50.8667978229637
 20
23.97345930097687
 10
51.06484848677735
 20
23.7021355158727
 10
51.24866087204935
 20
23.4202560136852
 10
51.41770179728661
 20
23.12835590503937
 10
51.5714380809961
 20
22.8269703005602
 10
51.70933654168476
 20
22.5166343108727
 10
51.83086399785952
 20
22.19788304660187
 10
51.93548726802735
 20
21.8712516183727
  0
LINE
  5
127
330
10403
100
AcDbEntity
  8
0
 62
     7
100
AcDbLine
 10
51.93548726802735
 20
21.8712516183727
 30
0.0
 11
56.37144942802735
 21
21.8712516183727
 31
0.0
  0
LWPOLYLINE
  5
128
330
10403
100
AcDbEntity
  8
0
 62
     7
100
AcDbPolyline
 90
       25
 70
     0
 43
0.0
 10
56.37144942802735
 20
21.8712516183727
 10
56.42683300559679
 20
21.87239084232525
 10
56.48185626691624
 20
21.8757876783264
 10
56.53645985490235
 20
21.88141087259145
 10
56.5905844124718
 20
21.88922917133566
 10
56.64417058254125
 20
21.89921132077432
 10
56.69715900802735
 20
21.91132606712269
 10
56.74949033184679
 20
21.92554215659608
 10
56.80110519691624
 20
21.94182833540973
 10
56.85194424615236
 20
21.96015334977895
 10
56.90194812247179
 20
21.98048594591899
 10
56.95105746879125
 20
22.00279487004515
 10
56.99921292802735
 20
22.0270488683727
 10
57.0463551430968
 20
22.05321668711691
 10
57.09242475691624
 20
22.08126707249307
 10
57.13736241240235
 20
22.11116877071645
 10
57.1811087524718
 20
22.14289052800233
 10
57.22360442004126
 20
22.17640109056598
 10
57.26479005802735
 20
22.21166920462269
 10
57.3046063093468
 20
22.24866361638774
 10
57.34299381691624
 20
22.2873530720764
 10
57.37989322365235
 20
22.32770631790395
 10
57.41524517247181
 20
22.36969210008566
 10
57.44899030629124
 20
22.41327916483682
 10
57.48106926802735
 20
22.45843625837269
  0
LWPOLYLINE
  5
129
330
10403
100
AcDbEntity
  8
0
 62
     7
100
AcDbPolyline
 90
       25
 70
     0
 43
0.0
 10
57.48106926802735
 20
22.45843625837269
 10
57.51128092118708
 20
22.504893907794
 10
57.53942171330514
 20
22.55232210040973
 10
57.56548431333986
 20
22.6006542127477
 10
57.58946139024959
 20
22.64982362133566
 10
57.61134561299263
 20
22.6997637027014
 10
57.63112965052736
 20
22.7504078333727
 10
57.64880617181208
 20
22.80168938987732
 10
57.66436784580514
 20
22.85354174874307
 10
57.67780734146485
 20
22.9058982864977
 10
57.68911732774957
 20
22.958692379669
 10
57.69829047361763
 20
23.01185740478473
 10
57.70531944802735
 20
23.0653267383727
 10
57.71019691993708
 20
23.11903375696066
 10
57.71291555830513
 20
23.17291183707639
 10
57.71346803208986
 20
23.22689435524769
 10
57.71184701024958
 20
23.28091468800232
 10
57.70804516174263
 20
23.33490621186807
 10
57.70205515552735
 20
23.3888023033727
 10
57.69386966056206
 20
23.44253633904399
 10
57.68348134580513
 20
23.49604169540973
 10
57.67088288021486
 20
23.5492517489977
 10
57.65606693274958
 20
23.60209987633566
 10
57.63902617236764
 20
23.65451945395139
 10
57.61975326802735
 20
23.70644385837269
  0
LINE
  5
12A
330
10403
100
AcDbEntity
  8
0
 62
     7
100
AcDbLine
 10
57.61975326802735
 20
23.70644385837269
 30
0.0
 11
57.61975326802735
 21
23.70644385837269
 31
0.0
  0
LWPOLYLINE
  5
12B
330
10403
100
AcDbEntity
  8
0
 62
     7
100
AcDbPolyline
 90
       25
 70
     0
 43
0.0
 10
32.25243478802736
 20
35.3086347383727
 10
32.24952283667898
 20
35.22221241964584
 10
32.24091225557365
 20
35.13735182522456
 10
32.22679095412111
 20
35.05424105774769
 10
32.20734684173107
 20
34.97306821985418
 10
32.18276782781324
 20
34.89402141418288
 10
32.15324182177736
 20
34.8172887433727
 10
32.11895673303314
 20
34.74305831006252
 10
32.08010047099032
 20
34.67151821689122
 10
32.03686094505861
 20
34.60285656649769
 10
31.98942606464773
 20
34.53726146152084
 10
31.9379837391674
 20
34.47492100459954
 10
31.88272187802735
 20
34.41602329837269
 10
31.82382839063731
 20
34.36075644547918
 10
31.76149118640699
 20
34.30930854855788
 10
31.69589817474611
 20
34.2618677102477
 10
31.62723726506439
 20
34.21862203318751
 10
31.55569636677157
 20
34.17975962001621
 10
31.48146338927735
 20
34.1454685733727
 10
31.40472624199147
 20
34.11593699589584
 10
31.32567283432365
 20
34.09135299022455
 10
31.24449107568361
 20
34.0719046589977
 10
31.16136887548106
 20
34.05778010485417
 10
31.07649414312574
 20
34.04916743043288
 10
30.99005478802735
 20
34.0462547383727
  0
LINE
  5
12C
330
10403
100
AcDbEntity
  8
0
 62
     7
100
AcDbLine
 10
30.99005478802735
 20
34.0462547383727
 30
0.0
 11
23.51134214802735
 21
34.0462547383727
 31
0.0
  0
LWPOLYLINE
  5
12D
330
10403
100
AcDbEntity
  8
0
 62
     7
100
AcDbPolyline
 90
       25
 70
     0
 43
0.0
 10
23.51134214802735
 20
34.0462547383727
 10
23.4249198293005
 20
34.04916668972108
 10
23.3400592348792
 20
34.05777727082641
 10
23.25694846740236
 20
34.07189857227895
 10
23.17577562950884
 20
34.091342684669
 10
23.09672882383754
 20
34.11592169858682
 10
23.01999615302736
 20
34.1454477046227
 10
22.94576571971717
 20
34.17973279336691
 10
22.87422562654588
 20
34.21858905540973
 10
22.80556397615236
 20
34.26182858134145
 10
22.73996887117551
 20
34.30926346175233
 10
22.6776284142542
 20
34.36070578723265
 10
22.61873070802736
 20
34.4159676483727
 10
22.56346385513384
 20
34.47486113576275
 10
22.51201595821254
 20
34.53719833999307
 10
22.46457511990236
 20
34.60279135165395
 10
22.42132944284217
 20
34.67145226133566
 10
22.38246702967088
 20
34.74299315962848
 10
22.34817598302735
 20
34.8172261371227
 10
22.3186444055505
 20
34.89396328440858
 10
22.2940603998792
 20
34.9730166920764
 10
22.27461206865236
 20
35.05419845071644
 10
22.26048751450883
 20
35.13732065091899
 10
22.25187484008754
 20
35.22219538327432
 10
22.24896214802735
 20
35.3086347383727
  0
LINE
  5
12E
330
10403
100
AcDbEntity
  8
0
 62
     7
100
AcDbLine
 10
22.24896214802735
 20
35.3086347383727
 30
0.0
 11
22.24896214802735
 21
41.6212756183727
 31
0.0
  0
LWPOLYLINE
  5
12F
330
10403
100
AcDbEntity
  8
0
 62
     7
100
AcDbPolyline
 90
       25
 70
     0
 43
0.0
 10
22.24896214802735
 20
41.6212756183727
 10
22.26050073462458
 20
41.9637467639977
 10
22.29461994747179
 20
42.30002185670602
 10
22.35057496615236
 20
42.62935614024769
 10
22.42762097024958
 20
42.95100485837269
 10
22.5250131393468
 20
43.26422325483104
 10
22.64200665302736
 20
43.56826657337269
 10
22.77785669087458
 20
43.8623900577477
 10
22.9318184324718
 20
44.14584895170603
 10
23.10314705740236
 20
44.4178984989977
 10
23.29109774524958
 20
44.6777939433727
 10
23.4949256755968
 20
44.92479052858103
 10
23.71388602802736
 20
45.1581434983727
 10
23.94723398212458
 20
45.3771080964977
 10
24.1942247174718
 20
45.58093956670602
 10
24.45411341365236
 20
45.7688931527477
 10
24.72615525024958
 20
45.94022409837271
 10
25.0096054068468
 20
46.09418764733103
 10
25.30371906302735
 20
46.2300390433727
 10
25.60775139837457
 20
46.3470335302477
 10
25.9209575924718
 20
46.44442635170603
 10
26.24259282490235
 20
46.5214727514977
 10
26.57191227524958
 20
46.57742797337271
 10
26.9081711230968
 20
46.61154726108103
 10
27.25062454802736
 20
46.6230858583727
  0
LWPOLYLINE
  5
130
330
10403
100
AcDbEntity
  8
0
 62
     7
100
AcDbPolyline
 90
       25
 70
     0
 43
0.0
 10
27.25062454802736
 20
46.6230858583727
 10
27.59309569365236
 20
46.61154726108104
 10
27.92937078636069
 20
46.57742797337271
 10
28.25870506990235
 20
46.5214727514977
 10
28.58035378802736
 20
46.44442635170603
 10
28.89357218448569
 20
46.3470335302477
 10
29.19761550302735
 20
46.2300390433727
 10
29.49173898740236
 20
46.09418764733103
 10
29.77519788136069
 20
45.9402240983727
 10
30.04724742865235
 20
45.7688931527477
 10
30.30714287302736
 20
45.58093956670604
 10
30.55413945823569
 20
45.37710809649769
 10
30.78749242802736
 20
45.15814349837269
 10
31.00645702615235
 20
44.92479052858103
 10
31.21028849636069
 20
44.6777939433727
 10
31.39824208240235
 20
44.4178984989977
 10
31.56957302802736
 20
44.14584895170603
 10
31.72353657698569
 20
43.8623900577477
 10
31.85938797302736
 20
43.56826657337269
 10
31.97638245990236
 20
43.26422325483102
 10
32.07377528136068
 20
42.95100485837269
 10
32.15082168115235
 20
42.62935614024769
 10
32.20677690302736
 20
42.30002185670602
 10
32.2408961907357
 20
41.9637467639977
 10
32.25243478802736
 20
41.6212756183727
  0
LINE
  5
131
330
10403
100
AcDbEntity
  8
0
 62
     7
100
AcDbLine
 10
32.25243478802736
 20
41.6212756183727
 30
0.0
 11
32.25243478802736
 21
35.3086347383727
 31
0.0
  0
LWPOLYLINE
  5
132
330
10403
100
AcDbEntity
  8
0
 62
     7
100
AcDbPolyline
 90
       25
 70
     0
 43
0.0
 10
45.83813278802735
 20
24.3783800183727
 10
45.5562807837681
 20
24.3692366647558
 10
45.27932181061993
 20
24.34218533777085
 10
45.00782274802736
 20
24.29779413821644
 10
44.74235047543476
 20
24.23663116689121
 10
44.48347187228662
 20
24.15926452459376
 10
44.23175381802735
 20
24.0662623121227
 10
43.98776319210142
 20
23.95819263027663
 10
43.75206687395328
 20
23.83562357985418
 10
43.52523174302735
 20
23.69912326165395
 10
43.3078246787681
 20
23.54925977647455
 10
43.10041256061995
 20
23.38660122511459
 10
42.90356226802735
 20
23.2117157083727
 10
42.71784068043475
 20
23.02517132704746
 10
42.54381467728662
 20
22.82753618193751
 10
42.38205113802735
 20
22.61937837384144
 10
42.23311694210143
 20
22.40126600355788
 10
42.09757896895328
 20
22.17376717188543
 10
41.97600409802735
 20
21.9374499796227
 10
41.8689592087681
 20
21.6928825275683
 10
41.77701118061994
 20
21.44063291652085
 10
41.70072689302736
 20
21.18126924727895
 10
41.64067322543476
 20
20.91535962064122
 10
41.59741705728663
 20
20.64347213740626
 10
41.57152526802735
 20
20.3661748983727
  0
POLYLINE
  5
133
330
10403
100
AcDbEntity
  8
0
 62
     7
100
AcDb3dPolyline
 66
     1
 10
0.0
 20
0.0
 30
0.0
 70
     8
  0
VERTEX
  5
102CC
330
133
100
AcDbEntity
  8
0
 62
     7
100
AcDbVertex
100
AcDb3dPolylineVertex
 10
41.57152526802735
 20
20.3661748983727
 30
0.0
 70
    32
  0
VERTEX
  5
102CD
330
133
100
AcDbEntity
  8
0
 62
     7
100
AcDbVertex
100
AcDb3dPolylineVertex
 10
41.43356560206092
 20
20.3661748983727
 30
0.0
 70
    32
  0
VERTEX
  5
102CE
330
133
100
AcDbEntity
  8
0
 62
     7
100
AcDbVertex
100
AcDb3dPolylineVertex
 10
41.24189835029587
 20
20.3661748983727
 30
0.0
 70
    32
  0
VERTEX
  5
102CF
330
133
100
AcDbEntity
  8
0
 62
     7
100
AcDbVertex
100
AcDb3dPolylineVertex
 10
41.0014112119336
 20
20.3661748983727
 30
0.0
 70
    32
  0
VERTEX
  5
102D0
330
133
100
AcDbEntity
  8
0
 62
     7
100
AcDbVertex
100
AcDb3dPolylineVertex
 10
40.71699188617551
 20
20.3661748983727
 30
0.0
 70
    32
  0
VERTEX
  5
102D1
330
133
100
AcDbEntity
  8
0
 62
     7
100
AcDbVertex
100
AcDb3dPolylineVertex
 10
40.39352807222296
 20
20.3661748983727
 30
0.0
 70
    32
  0
VERTEX
  5
102D2
330
133
100
AcDbEntity
  8
0
 62
     7
100
AcDbVertex
100
AcDb3dPolylineVertex
 10
40.03590746927735
 20
20.3661748983727
 30
0.0
 70
    32
  0
VERTEX
  5
102D3
330
133
100
AcDbEntity
  8
0
 62
     7
100
AcDbVertex
100
AcDb3dPolylineVertex
 10
39.64901777654008
 20
20.3661748983727
 30
0.0
 70
    32
  0
VERTEX
  5
102D4
330
133
100
AcDbEntity
  8
0
 62
     7
100
AcDbVertex
100
AcDb3dPolylineVertex
 10
39.23774669321254
 20
20.3661748983727
 30
0.0
 70
    32
  0
VERTEX
  5
102D5
330
133
100
AcDbEntity
  8
0
 62
     7
100
AcDbVertex
100
AcDb3dPolylineVertex
 10
38.80698191849611
 20
20.3661748983727
 30
0.0
 70
    32
  0
VERTEX
  5
102D6
330
133
100
AcDbEntity
  8
0
 62
     7
100
AcDbVertex
100
AcDb3dPolylineVertex
 10
38.36161115159217
 20
20.3661748983727
 30
0.0
 70
    32
  0
VERTEX
  5
102D7
330
133
100
AcDbEntity
  8
0
 62
     7
100
AcDbVertex
100
AcDb3dPolylineVertex
 10
37.90652209170212
 20
20.3661748983727
 30
0.0
 70
    32
  0
VERTEX
  5
102D8
330
133
100
AcDbEntity
  8
0
 62
     7
100
AcDbVertex
100
AcDb3dPolylineVertex
 10
37.44660243802736
 20
20.3661748983727
 30
0.0
 70
    32
  0
VERTEX
  5
102D9
330
133
100
AcDbEntity
  8
0
 62
     7
100
AcDbVertex
100
AcDb3dPolylineVertex
 10
36.98673988976925
 20
20.3661748983727
 30
0.0
 70
    32
  0
VERTEX
  5
102DA
330
133
100
AcDbEntity
  8
0
 62
     7
100
AcDbVertex
100
AcDb3dPolylineVertex
 10
36.53182214612921
 20
20.3661748983727
 30
0.0
 70
    32
  0
VERTEX
  5
102DB
330
133
100
AcDbEntity
  8
0
 62
     7
100
AcDbVertex
100
AcDb3dPolylineVertex
 10
36.0867369063086
 20
20.3661748983727
 30
0.0
 70
    32
  0
VERTEX
  5
102DC
330
133
100
AcDbEntity
  8
0
 62
     7
100
AcDbVertex
100
AcDb3dPolylineVertex
 10
35.65637186950884
 20
20.3661748983727
 30
0.0
 70
    32
  0
VERTEX
  5
102DD
330
133
100
AcDbEntity
  8
0
 62
     7
100
AcDbVertex
100
AcDb3dPolylineVertex
 10
35.24561473493129
 20
20.3661748983727
 30
0.0
 70
    32
  0
VERTEX
  5
102DE
330
133
100
AcDbEntity
  8
0
 62
     7
100
AcDbVertex
100
AcDb3dPolylineVertex
 10
34.85935320177735
 20
20.3661748983727
 30
0.0
 70
    32
  0
VERTEX
  5
102DF
330
133
100
AcDbEntity
  8
0
 62
     7
100
AcDbVertex
100
AcDb3dPolylineVertex
 10
34.50247496924842
 20
20.3661748983727
 30
0.0
 70
    32
  0
VERTEX
  5
102E0
330
133
100
AcDbEntity
  8
0
 62
     7
100
AcDbVertex
100
AcDb3dPolylineVertex
 10
34.17986773654587
 20
20.3661748983727
 30
0.0
 70
    32
  0
VERTEX
  5
102E1
330
133
100
AcDbEntity
  8
0
 62
     7
100
AcDbVertex
100
AcDb3dPolylineVertex
 10
33.89641920287111
 20
20.3661748983727
 30
0.0
 70
    32
  0
VERTEX
  5
102E2
330
133
100
AcDbEntity
  8
0
 62
     7
100
AcDbVertex
100
AcDb3dPolylineVertex
 10
33.6570170674255
 20
20.3661748983727
 30
0.0
 70
    32
  0
VERTEX
  5
102E3
330
133
100
AcDbEntity
  8
0
 62
     7
100
AcDbVertex
100
AcDb3dPolylineVertex
 10
33.46654902941046
 20
20.3661748983727
 30
0.0
 70
    32
  0
VERTEX
  5
102E4
330
133
100
AcDbEntity
  8
0
 62
     7
100
AcDbVertex
100
AcDb3dPolylineVertex
 10
33.32990278802735
 20
20.3661748983727
 30
0.0
 70
    32
  0
SEQEND
  5
103DE
330
133
100
AcDbEntity
  8
0
 62
     7
  0
LWPOLYLINE
  5
134
330
10403
100
AcDbEntity
  8
0
 62
     7
100
AcDbPolyline
 90
       25
 70
     0
 43
0.0
 10
33.32990278802735
 20
20.3661748983727
 10
33.34502911500653
 20
20.42645109795024
 10
33.35955010386068
 20
20.48696614165973
 10
33.37346234646485
 20
20.54771655696645
 10
33.38676243469403
 20
20.60869887133566
 10
33.39944696042319
 20
20.66990961223265
 10
33.41151251552736
 20
20.73134530712269
 10
33.42295569188153
 20
20.79300248347108
 10
33.43377308136068
 20
20.85487766874306
 10
33.44396127583985
 20
20.91696739040394
 10
33.45351686719403
 20
20.97926817591899
 10
33.46243644729819
 20
21.04177655275348
 10
33.47071660802736
 20
21.10448904837269
 10
33.47835394125653
 20
21.16740219024191
 10
33.48534503886069
 20
21.2305125058264
 10
33.49168649271486
 20
21.29381652259145
 10
33.49737489469403
 20
21.35731076800232
 10
33.50240683667319
 20
21.42099176952431
 10
33.50677891052735
 20
21.4848560546227
 10
33.51048770813152
 20
21.54890015076274
 10
33.51352982136069
 20
21.61312058540973
 10
33.51590184208986
 20
21.67751388602894
 10
33.51760036219403
 20
21.74207658008566
 10
33.51862197354819
 20
21.80680519504515
 10
33.51896326802736
 20
21.8716962583727
  0
LWPOLYLINE
  5
135
330
10403
100
AcDbEntity
  8
0
 62
     7
100
AcDbPolyline
 90
       25
 70
     0
 43
0.0
 10
33.51896326802736
 20
21.8716962583727
 10
33.50501894549264
 20
22.28551076937964
 10
33.46378610441624
 20
22.69184241309492
 10
33.39616493458986
 20
23.0897909355602
 10
33.30305562580513
 20
23.47845608281714
 10
33.18535836785375
 20
23.85693760090742
 10
33.04397335052735
 20
24.2243352358727
 10
32.87980076361763
 20
24.57974873375464
 10
32.69374079691625
 20
24.92227784059492
 10
32.48669364021485
 20
25.2510223024352
 10
32.25955948330514
 20
25.56508186531714
 10
32.01323851597874
 20
25.86355627528242
 10
31.74863092802735
 20
26.1455452783727
 10
31.46663690924263
 20
26.41014862062964
 10
31.16815664941625
 20
26.65646604809492
 10
30.85409033833986
 20
26.8835973068102
 10
30.52533816580513
 20
27.09064214281714
 10
30.18280032160375
 20
27.27670030215742
 10
29.82737699552736
 20
27.4408715308727
 10
29.45996837736763
 20
27.58225557500464
 10
29.08147465691625
 20
27.69995218059492
 10
28.69279602396486
 20
27.79306109368519
 10
28.29483266830514
 20
27.86068206031714
 10
27.88848477972875
 20
27.90191482653242
 10
27.47465254802735
 20
27.9158591383727
  0
LWPOLYLINE
  5
136
330
10403
100
AcDbEntity
  8
0
 62
     7
100
AcDbPolyline
 90
       25
 70
     0
 43
0.0
 10
27.47465254802735
 20
27.9158591383727
 10
27.06083803702041
 20
27.90191482653242
 10
26.65450639330513
 20
27.86068206031714
 10
26.25655787083986
 20
27.7930610936852
 10
25.86789272358291
 20
27.69995218059492
 10
25.48941120549263
 20
27.58225557500464
 10
25.12201357052735
 20
27.4408715308727
 10
24.76660007264541
 20
27.27670030215742
 10
24.42407096580513
 20
27.09064214281714
 10
24.09532650396486
 20
26.8835973068102
 10
23.78126694108292
 20
26.65646604809492
 10
23.48279253111764
 20
26.41014862062964
 10
23.20080352802735
 20
26.1455452783727
 10
22.93620018577041
 20
25.86355627528242
 10
22.68988275830514
 20
25.56508186531714
 10
22.46275149958986
 20
25.2510223024352
 10
22.25570666358291
 20
24.92227784059492
 10
22.06964850424264
 20
24.57974873375464
 10
21.90547727552735
 20
24.2243352358727
 10
21.76409323139541
 20
23.85693760090742
 10
21.64639662580513
 20
23.47845608281714
 10
21.55328771271486
 20
23.0897909355602
 10
21.48566674608291
 20
22.69184241309492
 10
21.44443397986763
 20
22.28551076937964
 10
21.43048966802736
 20
21.8716962583727
  0
LWPOLYLINE
  5
137
330
10403
100
AcDbEntity
  8
0
 62
     7
100
AcDbPolyline
 90
       25
 70
     0
 43
0.0
 10
21.43048966802736
 20
21.8716962583727
 10
21.44443397986763
 20
21.45786395954746
 10
21.48566674608291
 20
21.05151600943751
 10
21.55328771271486
 20
20.65355259759145
 10
21.64639662580513
 20
20.26487391355788
 10
21.76409323139541
 20
19.88638014688543
 10
21.90547727552735
 20
19.5189714871227
 10
22.06964850424264
 20
19.1635481238183
 10
22.25570666358291
 20
18.82101024652085
 10
22.46275149958986
 20
18.49225804477894
 10
22.68988275830514
 20
18.17819170814121
 10
22.93620018577041
 20
17.87971142615626
 10
23.20080352802735
 20
17.59771738837269
 10
23.48279253111764
 20
17.33310978433913
 10
23.78126694108292
 20
17.08678880360418
 10
24.09532650396486
 20
16.85965463571645
 10
24.42407096580513
 20
16.65260747022455
 10
24.76660007264541
 20
16.46654749667709
 10
25.12201357052735
 20
16.3023749046227
 10
25.48941120549263
 20
16.16098988360996
 10
25.86789272358291
 20
16.04329262318751
 10
26.25655787083986
 20
15.95018331290395
 10
26.65450639330513
 20
15.88256214230788
 10
27.0608380370204
 20
15.84132930094793
 10
27.47465254802735
 20
15.8273849783727
  0
LWPOLYLINE
  5
138
330
10403
100
AcDbEntity
  8
0
 62
     7
100
AcDbPolyline
 90
       25
 70
     0
 43
0.0
 10
27.47465254802735
 20
15.8273849783727
 10
27.71489750299842
 20
15.83207782479631
 10
27.95275295279588
 20
15.84603957976159
 10
28.18804571474611
 20
15.8690950668102
 10
28.42060260617551
 20
15.90106910948381
 10
28.65025044441046
 20
15.94178653132408
 10
28.87681604677736
 20
15.9910721558727
 10
29.10012623060259
 20
16.04875080667131
 10
29.32000781321254
 20
16.11464730726158
 10
29.53628761193361
 20
16.1885864811852
 10
29.74879244409217
 20
16.27039315198381
 10
29.95734912701462
 20
16.35989214319908
 10
30.16178447802736
 20
16.4569082783727
 10
30.36192531445675
 20
16.56126638104631
 10
30.55759845362921
 20
16.67279127476159
 10
30.74863071287111
 20
16.7913077830602
 10
30.93484890950883
 20
16.91664072948381
 10
31.11607986086879
 20
17.04861493757409
 10
31.29215038427736
 20
17.18705523087269
 10
31.46288729706092
 20
17.33178643292131
 10
31.62811741654587
 20
17.48263336726158
 10
31.7876675600586
 20
17.6394208574352
 10
31.9413645449255
 20
17.80197372698381
 10
32.08903518847295
 20
17.97011679944909
 10
32.23050630802736
 20
18.14367489837269
  0
POLYLINE
  5
139
330
10403
100
AcDbEntity
  8
0
 62
     7
100
AcDb3dPolyline
 66
     1
 10
0.0
 20
0.0
 30
0.0
 70
     8
  0
VERTEX
  5
10362
330
139
100
AcDbEntity
  8
0
 62
     7
100
AcDbVertex
100
AcDb3dPolylineVertex
 10
32.23050630802736
 20
18.14367489837269
 30
0.0
 70
    32
  0
VERTEX
  5
10363
330
139
100
AcDbEntity
  8
0
 62
     7
100
AcDbVertex
100
AcDb3dPolylineVertex
 10
32.66571301202041
 20
18.14367489837269
 30
0.0
 70
    32
  0
VERTEX
  5
10364
330
139
100
AcDbEntity
  8
0
 62
     7
100
AcDbVertex
100
AcDb3dPolylineVertex
 10
33.09214451163847
 20
18.14367489837269
 30
0.0
 70
    32
  0
VERTEX
  5
10365
330
139
100
AcDbEntity
  8
0
 62
     7
100
AcDbVertex
100
AcDb3dPolylineVertex
 10
33.51068266833985
 20
18.14367489837269
 30
0.0
 70
    32
  0
VERTEX
  5
10366
330
139
100
AcDbEntity
  8
0
 62
     7
100
AcDbVertex
100
AcDb3dPolylineVertex
 10
33.92220934358291
 20
18.1436748983727
 30
0.0
 70
    32
  0
VERTEX
  5
10367
330
139
100
AcDbEntity
  8
0
 62
     7
100
AcDbVertex
100
AcDb3dPolylineVertex
 10
34.32760639882597
 20
18.14367489837269
 30
0.0
 70
    32
  0
VERTEX
  5
10368
330
139
100
AcDbEntity
  8
0
 62
     7
100
AcDbVertex
100
AcDb3dPolylineVertex
 10
34.72775569552736
 20
18.14367489837269
 30
0.0
 70
    32
  0
VERTEX
  5
10369
330
139
100
AcDbEntity
  8
0
 62
     7
100
AcDbVertex
100
AcDb3dPolylineVertex
 10
35.1235390951454
 20
18.14367489837269
 30
0.0
 70
    32
  0
VERTEX
  5
1036A
330
139
100
AcDbEntity
  8
0
 62
     7
100
AcDbVertex
100
AcDb3dPolylineVertex
 10
35.51583845913846
 20
18.14367489837269
 30
0.0
 70
    32
  0
VERTEX
  5
1036B
330
139
100
AcDbEntity
  8
0
 62
     7
100
AcDbVertex
100
AcDb3dPolylineVertex
 10
35.90553564896486
 20
18.14367489837269
 30
0.0
 70
    32
  0
VERTEX
  5
1036C
330
139
100
AcDbEntity
  8
0
 62
     7
100
AcDbVertex
100
AcDb3dPolylineVertex
 10
36.29351252608291
 20
18.1436748983727
 30
0.0
 70
    32
  0
VERTEX
  5
1036D
330
139
100
AcDbEntity
  8
0
 62
     7
100
AcDbVertex
100
AcDb3dPolylineVertex
 10
36.68065095195097
 20
18.1436748983727
 30
0.0
 70
    32
  0
VERTEX
  5
1036E
330
139
100
AcDbEntity
  8
0
 62
     7
100
AcDbVertex
100
AcDb3dPolylineVertex
 10
37.06783278802735
 20
18.14367489837269
 30
0.0
 70
    32
  0
VERTEX
  5
1036F
330
139
100
AcDbEntity
  8
0
 62
     7
100
AcDbVertex
100
AcDb3dPolylineVertex
 10
37.45593989577041
 20
18.14367489837269
 30
0.0
 70
    32
  0
VERTEX
  5
10370
330
139
100
AcDbEntity
  8
0
 62
     7
100
AcDbVertex
100
AcDb3dPolylineVertex
 10
37.84585413663847
 20
18.14367489837269
 30
0.0
 70
    32
  0
VERTEX
  5
10371
330
139
100
AcDbEntity
  8
0
 62
     7
100
AcDbVertex
100
AcDb3dPolylineVertex
 10
38.23845737208985
 20
18.14367489837269
 30
0.0
 70
    32
  0
VERTEX
  5
10372
330
139
100
AcDbEntity
  8
0
 62
     7
100
AcDbVertex
100
AcDb3dPolylineVertex
 10
38.63463146358291
 20
18.14367489837269
 30
0.0
 70
    32
  0
VERTEX
  5
10373
330
139
100
AcDbEntity
  8
0
 62
     7
100
AcDbVertex
100
AcDb3dPolylineVertex
 10
39.03525827257597
 20
18.14367489837269
 30
0.0
 70
    32
  0
VERTEX
  5
10374
330
139
100
AcDbEntity
  8
0
 62
     7
100
AcDbVertex
100
AcDb3dPolylineVertex
 10
39.44121966052735
 20
18.14367489837269
 30
0.0
 70
    32
  0
VERTEX
  5
10375
330
139
100
AcDbEntity
  8
0
 62
     7
100
AcDbVertex
100
AcDb3dPolylineVertex
 10
39.8533974888954
 20
18.14367489837269
 30
0.0
 70
    32
  0
VERTEX
  5
10376
330
139
100
AcDbEntity
  8
0
 62
     7
100
AcDbVertex
100
AcDb3dPolylineVertex
 10
40.27267361913846
 20
18.14367489837269
 30
0.0
 70
    32
  0
VERTEX
  5
10377
330
139
100
AcDbEntity
  8
0
 62
     7
100
AcDbVertex
100
AcDb3dPolylineVertex
 10
40.69992991271484
 20
18.14367489837269
 30
0.0
 70
    32
  0
VERTEX
  5
10378
330
139
100
AcDbEntity
  8
0
 62
     7
100
AcDbVertex
100
AcDb3dPolylineVertex
 10
41.13604823108291
 20
18.14367489837269
 30
0.0
 70
    32
  0
VERTEX
  5
10379
330
139
100
AcDbEntity
  8
0
 62
     7
100
AcDbVertex
100
AcDb3dPolylineVertex
 10
41.58191043570096
 20
18.14367489837269
 30
0.0
 70
    32
  0
VERTEX
  5
1037A
330
139
100
AcDbEntity
  8
0
 62
     7
100
AcDbVertex
100
AcDb3dPolylineVertex
 10
42.03839838802735
 20
18.14367489837269
 30
0.0
 70
    32
  0
SEQEND
  5
103E4
330
139
100
AcDbEntity
  8
0
 62
     7
  0
LWPOLYLINE
  5
13A
330
10403
100
AcDbEntity
  8
0
 62
     7
100
AcDbPolyline
 90
       25
 70
     0
 43
0.0
 10
42.03839838802735
 20
18.14367489837269
 10
42.13095692972295
 20
17.97404602960534
 10
42.23083512325883
 20
17.80916369823381
 10
42.3378146413086
 20
17.64924764665395
 10
42.45167715654588
 20
17.49451761726159
 10
42.57220434164425
 20
17.34519335245256
 10
42.69917786927736
 20
17.20149459462269
 10
42.83237941211879
 20
17.06364108616783
 10
42.97159064284217
 20
16.93185256948381
 10
43.1165932341211
 20
16.80634878696645
 10
43.26716885862921
 20
16.68734948101159
 10
43.42309918904008
 20
16.57507439401506
 10
43.58416589802736
 20
16.4697432683727
 10
43.75015065826462
 20
16.37157584648033
 10
43.92083514242551
 20
16.28079187073381
 10
44.0960010231836
 20
16.19761108352895
 10
44.27542997321255
 20
16.12225322726159
 10
44.45890366518593
 20
16.05493804432756
 10
44.64620377177734
 20
15.9958852771227
 10
44.83711196566045
 20
15.94531466804284
 10
45.03140991950882
 20
15.90344595948381
 10
45.2288793059961
 20
15.87049889384145
 10
45.42930179779587
 20
15.84669321351159
 10
45.63245906758175
 20
15.83224866089006
 10
45.83813278802735
 20
15.8273849783727
  0
LWPOLYLINE
  5
13B
330
10403
100
AcDbEntity
  8
0
 62
     7
100
AcDbPolyline
 90
       25
 70
     0
 43
0.0
 10
45.83813278802735
 20
15.8273849783727
 10
46.13088119422528
 20
15.83724846873728
 10
46.4183320026107
 20
15.86641446128936
 10
46.6998486878711
 20
15.91424623821645
 10
46.97479472469403
 20
15.98010708170603
 10
47.24253358776694
 20
16.06336027394561
 10
47.50242875177736
 20
16.1633690971227
 10
47.75384369141278
 20
16.27949683342478
 10
47.99614188136069
 20
16.41110676503936
 10
48.22868679630861
 20
16.55756217415395
 10
48.45084191094404
 20
16.71822634295603
 10
48.66197069995443
 20
16.89246255363311
 10
48.86143663802736
 20
17.07963408837269
 10
49.04860319985027
 20
17.27910422936228
 10
49.22283386011069
 20
17.49023625878936
 10
49.3834920934961
 20
17.71239345884145
 10
49.52994137469403
 20
17.94493911170603
 10
49.66154517839193
 20
18.18723649957061
 10
49.77766697927736
 20
18.4386489046227
 10
49.87767025203777
 20
18.69853960904978
 10
49.96091847136069
 20
18.96627189503936
 10
50.0267751119336
 20
19.24120904477894
 10
50.07460364844403
 20
19.52271434045603
 10
50.10376755557945
 20
19.81015106425811
 10
50.11363030802735
 20
20.1028824983727
  0
LWPOLYLINE
  5
13C
330
10403
100
AcDbEntity
  8
0
 62
     7
100
AcDbPolyline
 90
       25
 70
     0
 43
0.0
 10
50.11363030802735
 20
20.1028824983727
 10
50.10376681766277
 20
20.39561393248728
 10
50.07460082511068
 20
20.68305065628936
 10
50.0267690481836
 20
20.96455595196645
 10
49.96090820469402
 20
21.23949310170603
 10
49.87765501245445
 20
21.50722538769561
 10
49.77764618927736
 20
21.76711609212269
 10
49.66151845297527
 20
22.01852849717478
 10
49.52990852136069
 20
22.26082588503936
 10
49.38345311224611
 20
22.49337153790395
 10
49.22278894344402
 20
22.71552873795603
 10
49.04855273276694
 20
22.92666076738311
 10
48.86138119802736
 20
23.12613090837269
 10
48.66191105703777
 20
23.31330244311228
 10
48.45077902761069
 20
23.48753865378936
 10
48.22862182755861
 20
23.64820282259144
 10
47.99607617469402
 20
23.79465823170602
 10
47.75377878682944
 20
23.92626816332061
 10
47.50236638177736
 20
24.04239589962269
 10
47.24247567735026
 20
24.14240472279978
 10
46.97474339136069
 20
24.22565791503936
 10
46.6998062416211
 20
24.29151875852894
 10
46.41830094594403
 20
24.33935053545603
 10
46.13086422214194
 20
24.36851652800812
 10
45.83813278802735
 20
24.3783800183727
  0
LINE
  5
13D
330
10403
100
AcDbEntity
  8
0
 62
     7
100
AcDbLine
 10
45.83813278802735
 20
24.3783800183727
 30
0.0
 11
45.83813278802735
 21
24.3783800183727
 31
0.0
  0
ENDSEC
  0
SECTION
  2
OBJECTS
  0
DICTIONARY
  5
103F3
330
0
100
AcDbDictionary
281
     1
  3
ACAD_DETAILVIEWSTYLE
350
1045C
  3
ACAD_GROUP
350
103F4
  3
ACAD_LAYOUT
350
10400
  3
ACAD_MATERIAL
350
10409
  3
ACAD_MLEADERSTYLE
350
10450
  3
ACAD_MLINESTYLE
350
103FD
  3
ACAD_PLOTSETTINGS
350
103FF
  3
ACAD_PLOTSTYLENAME
350
103F5
  3
ACAD_SCALELIST
350
10413
  3
ACAD_SECTIONVIEWSTYLE
350
1045D
  3
ACAD_TABLESTYLE
350
1044E
  3
ACDB_RECOMPOSE_DATA
350
10486
  3
AcDbVariableDictionary
350
10453
  3
APPDATA
350
10452
  0
DICTIONARY
  5
1045C
102
{ACAD_REACTORS
330
103F3
102
}
330
103F3
100
AcDbDictionary
281
     1
  0
DICTIONARY
  5
103F4
102
{ACAD_REACTORS
330
103F3
102
}
330
103F3
100
AcDbDictionary
281
     1
  0
DICTIONARY
  5
10400
102
{ACAD_REACTORS
330
103F3
102
}
330
103F3
100
AcDbDictionary
281
     1
  3
Feuille 1
350
10402
  3
Model
350
10404
  0
DICTIONARY
  5
10409
102
{ACAD_REACTORS
330
103F3
102
}
330
103F3
100
AcDbDictionary
281
     1
  3
ByBlock
350
1040B
  3
ByLayer
350
1040A
  3
Global
350
1040C
  0
DICTIONARY
  5
10450
102
{ACAD_REACTORS
330
103F3
102
}
330
103F3
100
AcDbDictionary
281
     1
  3
Standard
350
10451
  0
DICTIONARY
  5
103FD
102
{ACAD_REACTORS
330
103F3
102
}
330
103F3
100
AcDbDictionary
281
     1
  3
Standard
350
103FE
  0
DICTIONARY
  5
103FF
102
{ACAD_REACTORS
330
103F3
102
}
330
103F3
100
AcDbDictionary
281
     1
  0
ACDBDICTIONARYWDFLT
  5
103F5
102
{ACAD_REACTORS
330
103F3
102
}
330
103F3
100
AcDbDictionary
281
     1
  3
Normal
350
103F6
100
AcDbDictionaryWithDefault
340
103F6
  0
DICTIONARY
  5
10413
102
{ACAD_REACTORS
330
103F3
102
}
330
103F3
100
AcDbDictionary
281
     1
  3
A0
350
10414
  3
A1
350
10415
  3
A2
350
10416
  3
A3
350
10417
  3
A4
350
10418
  3
A5
350
10419
  3
A6
350
1041A
  3
A7
350
1041B
  3
A8
350
1041C
  3
A9
350
1041D
  3
B0
350
1041E
  3
B1
350
1041F
  3
B2
350
10420
  3
B3
350
10421
  3
B4
350
10422
  3
B5
350
10423
  3
B6
350
10424
  3
B7
350
10425
  3
B8
350
10426
  3
B9
350
10427
  3
C0
350
10428
  3
C1
350
10429
  3
C2
350
1042A
  3
C3
350
1042B
  3
C4
350
1042C
  3
C5
350
1042D
  3
C6
350
1042E
  3
C7
350
1042F
  3
C8
350
10430
  3
C9
350
10431
  3
D0
350
10432
  3
D1
350
10433
  3
D2
350
10434
  0
DICTIONARY
  5
1045D
102
{ACAD_REACTORS
330
103F3
102
}
330
103F3
100
AcDbDictionary
281
     1
  0
DICTIONARY
  5
1044E
102
{ACAD_REACTORS
330
103F3
102
}
330
103F3
100
AcDbDictionary
281
     1
  3
Standard
350
1044F
  0
XRECORD
  5
10486
102
{ACAD_REACTORS
330
103F3
102
}
330
103F3
100
AcDbXrecord
280
     1
 90
        1
330
1044F
  0
DICTIONARY
  5
10453
102
{ACAD_REACTORS
330
103F3
102
}
330
103F3
100
AcDbDictionary
281
     1
  3
CANNOSCALE
350
10454
  3
CMLEADERSTYLE
350
1045A
  3
CTABLESTYLE
350
10459
  3
MSLTSCALE
350
1045B
  3
XCLIPFRAME
350
1047C
  0
DICTIONARY
  5
10452
102
{ACAD_REACTORS
330
103F3
102
}
330
103F3
100
AcDbDictionary
281
     1
  0
LAYOUT
  5
10402
102
{ACAD_REACTORS
330
10400
102
}
330
10400
100
AcDbPlotSettings
  1

  2
none_device
  4

  6

 40
0.0
 41
0.0
 42
0.0
 43
0.0
 44
0.0
 45
0.0
 46
0.0
 47
0.0
 48
0.0
 49
0.0
140
0.0
141
0.0
142
1.0
143
1.0
 70
   688
 72
     0
 73
     0
 74
     5
  7

 75
    16
 76
     0
 77
     2
 78
   300
147
1.0
148
0.0
149
0.0
100
AcDbLayout
  1
Feuille 1
 70
     1
 71
     1
 10
0.0
 20
0.0
 11
0.0
 21
0.0
 12
0.0
 22
0.0
 32
0.0
 14
1.000000000000000E+20
 24
1.000000000000000E+20
 34
1.000000000000000E+20
 15
-1.000000000000000E+20
 25
-1.000000000000000E+20
 35
-1.000000000000000E+20
146
0.0
 13
0.0
 23
0.0
 33
0.0
 16
1.0
 26
0.0
 36
0.0
 17
0.0
 27
1.0
 37
0.0
 76
     0
330
10401
  0
LAYOUT
  5
10404
102
{ACAD_REACTORS
330
10400
102
}
330
10400
100
AcDbPlotSettings
  1

  2
none_device
  4
Letter_(8.50_x_11.00_Inches)
  6

 40
6.35
 41
6.35
 42
6.35
 43
6.35
 44
215.9
 45
279.4
 46
0.0
 47
0.0
 48
0.0
 49
0.0
140
0.0
141
0.0
142
1.0
143
1.0
 70
  1712
 72
     0
 73
     0
 74
     0
  7

 75
     0
 76
     0
 77
     2
 78
   300
147
1.0
148
0.0
149
0.0
100
AcDbLayout
  1
Model
 70
     1
 71
     0
 10
0.0
 20
0.0
 11
12.0
 21
9.0
 12
0.0
 22
0.0
 32
0.0
 14
14.94997590802735
 24
15.8273849783727
 34
0.0
 15
57.71346803208986
 25
52.5481227383727
 35
0.0
146
0.0
 13
0.0
 23
0.0
 33
0.0
 16
1.0
 26
0.0
 36
0.0
 17
0.0
 27
1.0
 37
0.0
 76
     0
330
10403
331
10406
  0
MATERIAL
  5
1040B
102
{ACAD_REACTORS
330
10409
102
}
330
10409
100
AcDbMaterial
  1
ByBlock
  0
MATERIAL
  5
1040A
102
{ACAD_REACTORS
330
10409
102
}
330
10409
100
AcDbMaterial
  1
ByLayer
  0
MATERIAL
  5
1040C
102
{ACAD_REACTORS
330
10409
102
}
330
10409
100
AcDbMaterial
  1
Global
  0
MLEADERSTYLE
  5
10451
102
{ACAD_REACTORS
330
10450
102
}
330
10450
100
AcDbMLeaderStyle
170
     2
171
     1
172
     0
 90
        2
 40
0.0
 41
0.0
173
     1
 91
-1056964608
340
103FA
 92
       -2
290
     1
 42
0.09
291
     1
 43
0.36
  3
Standard
341
0
 44
0.18
300

342
103F8
174
     1
178
     1
175
     1
176
     0
 93
-1056964608
 45
0.18
292
     0
297
     0
 46
0.18
343
0
 94
-1056964608
 47
1.0
 49
1.0
140
1.0
293
     1
141
0.0
294
     1
177
     0
142
1.0
295
     0
296
     0
143
0.125
1001
ACAD_MLEADERVER
1070
     2
  0
MLINESTYLE
  5
103FE
102
{ACAD_REACTORS
330
103FD
102
}
330
103FD
100
AcDbMlineStyle
  2
Standard
 70
     0
  3

 62
   256
 51
90.0
 52
90.0
 71
     2
 49
0.5
 62
   256
  6
BYLAYER
 49
-0.5
 62
   256
  6
BYLAYER
  0
ACDBPLACEHOLDER
  5
103F6
102
{ACAD_REACTORS
330
103F5
102
}
330
103F5
  0
SCALE
  5
10414
102
{ACAD_REACTORS
330
10413
102
}
330
10413
100
AcDbScale
 70
     0
300
1:1
140
1.0
141
1.0
290
     1
  0
SCALE
  5
10415
102
{ACAD_REACTORS
330
10413
102
}
330
10413
100
AcDbScale
 70
     0
300
1:2
140
1.0
141
2.0
290
     0
  0
SCALE
  5
10416
102
{ACAD_REACTORS
330
10413
102
}
330
10413
100
AcDbScale
 70
     0
300
1:4
140
1.0
141
4.0
290
     0
  0
SCALE
  5
10417
102
{ACAD_REACTORS
330
10413
102
}
330
10413
100
AcDbScale
 70
     0
300
1:5
140
1.0
141
5.0
290
     0
  0
SCALE
  5
10418
102
{ACAD_REACTORS
330
10413
102
}
330
10413
100
AcDbScale
 70
     0
300
1:8
140
1.0
141
8.0
290
     0
  0
SCALE
  5
10419
102
{ACAD_REACTORS
330
10413
102
}
330
10413
100
AcDbScale
 70
     0
300
1:10
140
1.0
141
10.0
290
     0
  0
SCALE
  5
1041A
102
{ACAD_REACTORS
330
10413
102
}
330
10413
100
AcDbScale
 70
     0
300
1:16
140
1.0
141
16.0
290
     0
  0
SCALE
  5
1041B
102
{ACAD_REACTORS
330
10413
102
}
330
10413
100
AcDbScale
 70
     0
300
1:20
140
1.0
141
20.0
290
     0
  0
SCALE
  5
1041C
102
{ACAD_REACTORS
330
10413
102
}
330
10413
100
AcDbScale
 70
     0
300
1:30
140
1.0
141
30.0
290
     0
  0
SCALE
  5
1041D
102
{ACAD_REACTORS
330
10413
102
}
330
10413
100
AcDbScale
 70
     0
300
1:40
140
1.0
141
40.0
290
     0
  0
SCALE
  5
1041E
102
{ACAD_REACTORS
330
10413
102
}
330
10413
100
AcDbScale
 70
     0
300
1:50
140
1.0
141
50.0
290
     0
  0
SCALE
  5
1041F
102
{ACAD_REACTORS
330
10413
102
}
330
10413
100
AcDbScale
 70
     0
300
1:100
140
1.0
141
100.0
290
     0
  0
SCALE
  5
10420
102
{ACAD_REACTORS
330
10413
102
}
330
10413
100
AcDbScale
 70
     0
300
2:1
140
2.0
141
1.0
290
     0
  0
SCALE
  5
10421
102
{ACAD_REACTORS
330
10413
102
}
330
10413
100
AcDbScale
 70
     0
300
4:1
140
4.0
141
1.0
290
     0
  0
SCALE
  5
10422
102
{ACAD_REACTORS
330
10413
102
}
330
10413
100
AcDbScale
 70
     0
300
8:1
140
8.0
141
1.0
290
     0
  0
SCALE
  5
10423
102
{ACAD_REACTORS
330
10413
102
}
330
10413
100
AcDbScale
 70
     0
300
10:1
140
10.0
141
1.0
290
     0
  0
SCALE
  5
10424
102
{ACAD_REACTORS
330
10413
102
}
330
10413
100
AcDbScale
 70
     0
300
100:1
140
100.0
141
1.0
290
     0
  0
SCALE
  5
10425
102
{ACAD_REACTORS
330
10413
102
}
330
10413
100
AcDbScale
 70
     0
300
1/128" = 1'-0"
140
0.0078125
141
12.0
290
     0
  0
SCALE
  5
10426
102
{ACAD_REACTORS
330
10413
102
}
330
10413
100
AcDbScale
 70
     0
300
1/64" = 1'-0"
140
0.015625
141
12.0
290
     0
  0
SCALE
  5
10427
102
{ACAD_REACTORS
330
10413
102
}
330
10413
100
AcDbScale
 70
     0
300
1/32" = 1'-0"
140
0.03125
141
12.0
290
     0
  0
SCALE
  5
10428
102
{ACAD_REACTORS
330
10413
102
}
330
10413
100
AcDbScale
 70
     0
300
1/16" = 1'-0"
140
0.0625
141
12.0
290
     0
  0
SCALE
  5
10429
102
{ACAD_REACTORS
330
10413
102
}
330
10413
100
AcDbScale
 70
     0
300
3/32" = 1'-0"
140
0.09375
141
12.0
290
     0
  0
SCALE
  5
1042A
102
{ACAD_REACTORS
330
10413
102
}
330
10413
100
AcDbScale
 70
     0
300
1/8" = 1'-0"
140
0.125
141
12.0
290
     0
  0
SCALE
  5
1042B
102
{ACAD_REACTORS
330
10413
102
}
330
10413
100
AcDbScale
 70
     0
300
3/16" = 1'-0"
140
0.1875
141
12.0
290
     0
  0
SCALE
  5
1042C
102
{ACAD_REACTORS
330
10413
102
}
330
10413
100
AcDbScale
 70
     0
300
1/4" = 1'-0"
140
0.25
141
12.0
290
     0
  0
SCALE
  5
1042D
102
{ACAD_REACTORS
330
10413
102
}
330
10413
100
AcDbScale
 70
     0
300
3/8" = 1'-0"
140
0.375
141
12.0
290
     0
  0
SCALE
  5
1042E
102
{ACAD_REACTORS
330
10413
102
}
330
10413
100
AcDbScale
 70
     0
300
1/2" = 1'-0"
140
0.5
141
12.0
290
     0
  0
SCALE
  5
1042F
102
{ACAD_REACTORS
330
10413
102
}
330
10413
100
AcDbScale
 70
     0
300
3/4" = 1'-0"
140
0.75
141
12.0
290
     0
  0
SCALE
  5
10430
102
{ACAD_REACTORS
330
10413
102
}
330
10413
100
AcDbScale
 70
     0
300
1" = 1'-0"
140
1.0
141
12.0
290
     0
  0
SCALE
  5
10431
102
{ACAD_REACTORS
330
10413
102
}
330
10413
100
AcDbScale
 70
     0
300
1-1/2" = 1'-0"
140
1.5
141
12.0
290
     0
  0
SCALE
  5
10432
102
{ACAD_REACTORS
330
10413
102
}
330
10413
100
AcDbScale
 70
     0
300
3" = 1'-0"
140
3.0
141
12.0
290
     0
  0
SCALE
  5
10433
102
{ACAD_REACTORS
330
10413
102
}
330
10413
100
AcDbScale
 70
     0
300
6" = 1'-0"
140
6.0
141
12.0
290
     0
  0
SCALE
  5
10434
102
{ACAD_REACTORS
330
10413
102
}
330
10413
100
AcDbScale
 70
     0
300
1'-0" = 1'-0"
140
12.0
141
12.0
290
     0
  0
TABLESTYLE
  5
1044F
102
{ACAD_REACTORS
330
1044E
102
}
102
{ACAD_XDICTIONARY
360
10483
102
}
330
1044E
100
AcDbTableStyle
  3
Standard
 70
     0
 71
     0
 40
0.06
 41
0.06
280
     0
281
     0
  7
STANDARD
140
0.18
170
     2
 62
     0
 63
   257
283
     0
274
    -2
284
     1
 64
     0
275
    -2
285
     1
 65
     0
276
    -2
286
     1
 66
     0
277
    -2
287
     1
 67
     0
278
    -2
288
     1
 68
     0
279
    -2
289
     1
 69
     0
  7
STANDARD
140
0.25
170
     5
 62
     0
 63
   257
283
     0
274
    -2
284
     1
 64
     0
275
    -2
285
     1
 65
     0
276
    -2
286
     1
 66
     0
277
    -2
287
     1
 67
     0
278
    -2
288
     1
 68
     0
279
    -2
289
     1
 69
     0
  7
STANDARD
140
0.18
170
     5
 62
     0
 63
   257
283
     0
274
    -2
284
     1
 64
     0
275
    -2
285
     1
 65
     0
276
    -2
286
     1
 66
     0
277
    -2
287
     1
 67
     0
278
    -2
288
     1
 68
     0
279
    -2
289
     1
 69
     0
  0
DICTIONARYVAR
  5
10454
102
{ACAD_REACTORS
330
10453
102
}
330
10453
100
DictionaryVariables
280
     0
  1
1:1
  0
DICTIONARYVAR
  5
1045A
102
{ACAD_REACTORS
330
10453
102
}
330
10453
100
DictionaryVariables
280
     0
  1
Standard
  0
DICTIONARYVAR
  5
10459
102
{ACAD_REACTORS
330
10453
102
}
330
10453
100
DictionaryVariables
280
     0
  1
Standard
  0
DICTIONARYVAR
  5
1045B
102
{ACAD_REACTORS
330
10453
102
}
330
10453
100
DictionaryVariables
280
     0
  1
0
  0
DICTIONARYVAR
  5
1047C
102
{ACAD_REACTORS
330
10453
102
}
330
10453
100
DictionaryVariables
280
     0
  1
0
  0
DICTIONARY
  5
10483
330
1044F
100
AcDbDictionary
280
     1
281
     1
  3
ACAD_ROUNDTRIP_2008_TABLESTYLE_CELLSTYLEMAP
360
10485
  3
ACAD_XREC_ROUNDTRIP
360
10484
  0
CELLSTYLEMAP
  5
10485
102
{ACAD_REACTORS
330
10483
102
}
330
10483
100
AcDbCellStyleMap
 90
        3
300
CELLSTYLE
  1
TABLEFORMAT_BEGIN
 90
        5
170
     1
 91
        0
 92
    32768
 62
   257
 93
        1
300
CONTENTFORMAT
  1
CONTENTFORMAT_BEGIN
 90
        0
 91
        0
 92
        4
 93
        0
300

 40
0.0
140
1.0
 94
        5
 62
     0
340
103F8
144
0.25
309
CONTENTFORMAT_END
171
     1
301
MARGIN
  1
CELLMARGIN_BEGIN
 40
0.06
 40
0.06
 40
0.06
 40
0.06
 40
0.06
 40
0.06
309
CELLMARGIN_END
 94
        6
 95
        1
302
GRIDFORMAT
  1
GRIDFORMAT_BEGIN
 90
        0
 91
        1
 62
     0
 92
       -2
340
103FA
 93
        0
 40
0.045
309
GRIDFORMAT_END
 95
        2
302
GRIDFORMAT
  1
GRIDFORMAT_BEGIN
 90
        0
 91
        1
 62
     0
 92
       -2
340
103FA
 93
        0
 40
0.045
309
GRIDFORMAT_END
 95
        4
302
GRIDFORMAT
  1
GRIDFORMAT_BEGIN
 90
        0
 91
        1
 62
     0
 92
       -2
340
103FA
 93
        0
 40
0.045
309
GRIDFORMAT_END
 95
        8
302
GRIDFORMAT
  1
GRIDFORMAT_BEGIN
 90
        0
 91
        1
 62
     0
 92
       -2
340
103FA
 93
        0
 40
0.045
309
GRIDFORMAT_END
 95
       16
302
GRIDFORMAT
  1
GRIDFORMAT_BEGIN
 90
        0
 91
        1
 62
     0
 92
       -2
340
103FA
 93
        0
 40
0.045
309
GRIDFORMAT_END
 95
       32
302
GRIDFORMAT
  1
GRIDFORMAT_BEGIN
 90
        0
 91
        1
 62
     0
 92
       -2
340
103FA
 93
        0
 40
0.045
309
GRIDFORMAT_END
309
TABLEFORMAT_END
  1
CELLSTYLE_BEGIN
 90
        1
 91
        1
300
_TITLE
309
CELLSTYLE_END
300
CELLSTYLE
  1
TABLEFORMAT_BEGIN
 90
        5
170
     1
 91
        0
 92
        0
 62
   257
 93
        1
300
CONTENTFORMAT
  1
CONTENTFORMAT_BEGIN
 90
        0
 91
        0
 92
        4
 93
        0
300

 40
0.0
140
1.0
 94
        5
 62
     0
340
103F8
144
0.18
309
CONTENTFORMAT_END
171
     1
301
MARGIN
  1
CELLMARGIN_BEGIN
 40
0.06
 40
0.06
 40
0.06
 40
0.06
 40
0.06
 40
0.06
309
CELLMARGIN_END
 94
        6
 95
        1
302
GRIDFORMAT
  1
GRIDFORMAT_BEGIN
 90
        0
 91
        1
 62
     0
 92
       -2
340
103FA
 93
        0
 40
0.045
309
GRIDFORMAT_END
 95
        2
302
GRIDFORMAT
  1
GRIDFORMAT_BEGIN
 90
        0
 91
        1
 62
     0
 92
       -2
340
103FA
 93
        0
 40
0.045
309
GRIDFORMAT_END
 95
        4
302
GRIDFORMAT
  1
GRIDFORMAT_BEGIN
 90
        0
 91
        1
 62
     0
 92
       -2
340
103FA
 93
        0
 40
0.045
309
GRIDFORMAT_END
 95
        8
302
GRIDFORMAT
  1
GRIDFORMAT_BEGIN
 90
        0
 91
        1
 62
     0
 92
       -2
340
103FA
 93
        0
 40
0.045
309
GRIDFORMAT_END
 95
       16
302
GRIDFORMAT
  1
GRIDFORMAT_BEGIN
 90
        0
 91
        1
 62
     0
 92
       -2
340
103FA
 93
        0
 40
0.045
309
GRIDFORMAT_END
 95
       32
302
GRIDFORMAT
  1
GRIDFORMAT_BEGIN
 90
        0
 91
        1
 62
     0
 92
       -2
340
103FA
 93
        0
 40
0.045
309
GRIDFORMAT_END
309
TABLEFORMAT_END
  1
CELLSTYLE_BEGIN
 90
        2
 91
        1
300
_HEADER
309
CELLSTYLE_END
300
CELLSTYLE
  1
TABLEFORMAT_BEGIN
 90
        5
170
     1
 91
        0
 92
        0
 62
   257
 93
        1
300
CONTENTFORMAT
  1
CONTENTFORMAT_BEGIN
 90
        0
 91
        0
 92
        4
 93
        0
300

 40
0.0
140
1.0
 94
        2
 62
     0
340
103F8
144
0.18
309
CONTENTFORMAT_END
171
     1
301
MARGIN
  1
CELLMARGIN_BEGIN
 40
0.06
 40
0.06
 40
0.06
 40
0.06
 40
0.06
 40
0.06
309
CELLMARGIN_END
 94
        6
 95
        1
302
GRIDFORMAT
  1
GRIDFORMAT_BEGIN
 90
        0
 91
        1
 62
     0
 92
       -2
340
103FA
 93
        0
 40
0.045
309
GRIDFORMAT_END
 95
        2
302
GRIDFORMAT
  1
GRIDFORMAT_BEGIN
 90
        0
 91
        1
 62
     0
 92
       -2
340
103FA
 93
        0
 40
0.045
309
GRIDFORMAT_END
 95
        4
302
GRIDFORMAT
  1
GRIDFORMAT_BEGIN
 90
        0
 91
        1
 62
     0
 92
       -2
340
103FA
 93
        0
 40
0.045
309
GRIDFORMAT_END
 95
        8
302
GRIDFORMAT
  1
GRIDFORMAT_BEGIN
 90
        0
 91
        1
 62
     0
 92
       -2
340
103FA
 93
        0
 40
0.045
309
GRIDFORMAT_END
 95
       16
302
GRIDFORMAT
  1
GRIDFORMAT_BEGIN
 90
        0
 91
        1
 62
     0
 92
       -2
340
103FA
 93
        0
 40
0.045
309
GRIDFORMAT_END
 95
       32
302
GRIDFORMAT
  1
GRIDFORMAT_BEGIN
 90
        0
 91
        1
 62
     0
 92
       -2
340
103FA
 93
        0
 40
0.045
309
GRIDFORMAT_END
309
TABLEFORMAT_END
  1
CELLSTYLE_BEGIN
 90
        3
 91
        2
300
_DATA
309
CELLSTYLE_END
  0
XRECORD
  5
10484
102
{ACAD_REACTORS
330
10483
102
}
330
10483
100
AcDbXrecord
280
     1
102
ACAD_ROUNDTRIP_PRE2007_TABLESTYLE
 90
        4
 91
        0
  1

 92
        4
 93
        0
  2

 94
        4
 95
        0
  3

  0
ENDSEC
  0
EOF
